<svg width="1280" height="799" viewBox="0 0 1280 799" fill="none" xmlns="http://www.w3.org/2000/svg">
<g clip-path="url(#clip0_1514_8226)">
<rect width="1280" height="799" fill="#5C914F"/>
<g opacity="0.4">
<path opacity="0.5" fill-rule="evenodd" clip-rule="evenodd" d="M641.334 -107H639.334V264.191C568.58 264.55 511.334 322.018 511.334 392.856C511.334 463.694 568.58 521.162 639.334 521.521V905.667H641.334V521.516C711.78 520.801 768.667 463.472 768.667 392.856C768.667 322.24 711.78 264.911 641.334 264.196V-107ZM639.334 267.191C570.237 267.55 514.334 323.675 514.334 392.856C514.334 462.038 570.237 518.162 639.334 518.521V267.191ZM641.334 518.516V267.196C710.124 267.911 765.667 323.897 765.667 392.856C765.667 461.815 710.124 517.801 641.334 518.516Z" fill="white"/>
<g opacity="0.5">
<mask id="path-2-inside-1_1514_8226" fill="white">
<path d="M0 231.336H116V551.336H0V231.336Z"/>
</mask>
<path d="M116 231.336H119V228.336H116V231.336ZM116 551.336V554.336H119V551.336H116ZM0 234.336H116V228.336H0V234.336ZM113 231.336V551.336H119V231.336H113ZM116 548.336H0V554.336H116V548.336Z" fill="white" mask="url(#path-2-inside-1_1514_8226)"/>
<mask id="path-4-inside-2_1514_8226" fill="white">
<path d="M0 328.003H46.6667V456.003H0V328.003Z"/>
</mask>
<path d="M46.6667 328.003H49.6667V325.003H46.6667V328.003ZM46.6667 456.003V459.003H49.6667V456.003H46.6667ZM0 331.003H46.6667V325.003H0V331.003ZM43.6667 328.003V456.003H49.6667V328.003H43.6667ZM46.6667 453.003H0V459.003H46.6667V453.003Z" fill="white" mask="url(#path-4-inside-2_1514_8226)"/>
<path d="M114.666 342.003C114.666 342.003 135.999 356.952 135.999 391.336C135.999 425.72 114.666 440.669 114.666 440.669" stroke="white" stroke-width="3"/>
</g>
<g opacity="0.5">
<mask id="path-7-inside-3_1514_8226" fill="white">
<path d="M1280 231.336H1164V551.336H1280V231.336Z"/>
</mask>
<path d="M1164 231.336H1161V228.336H1164V231.336ZM1164 551.336V554.336H1161V551.336H1164ZM1280 234.336H1164V228.336H1280V234.336ZM1167 231.336V551.336H1161V231.336H1167ZM1164 548.336H1280V554.336H1164V548.336Z" fill="white" mask="url(#path-7-inside-3_1514_8226)"/>
<mask id="path-9-inside-4_1514_8226" fill="white">
<path d="M1280 328.003H1233.33V456.003H1280V328.003Z"/>
</mask>
<path d="M1233.33 328.003H1230.33V325.003H1233.33V328.003ZM1233.33 456.003V459.003H1230.33V456.003H1233.33ZM1280 331.003H1233.33V325.003H1280V331.003ZM1236.33 328.003V456.003H1230.33V328.003H1236.33ZM1233.33 453.003H1280V459.003H1233.33V453.003Z" fill="white" mask="url(#path-9-inside-4_1514_8226)"/>
<path d="M1165.33 342.003C1165.33 342.003 1144 356.952 1144 391.336C1144 425.72 1165.33 440.669 1165.33 440.669" stroke="white" stroke-width="3"/>
</g>
</g>
</g>
<defs>
<clipPath id="clip0_1514_8226">
<rect width="1280" height="799" fill="white"/>
</clipPath>
</defs>
</svg>
