<svg width="36" height="36" fill="none" xmlns="http://www.w3.org/2000/svg"><path d="M23.648 12.827a4.045 4.045 0 0 1-.348-.203 4.9 4.9 0 0 1-.895-.76 4.22 4.22 0 0 1-1.008-2.08h.004c-.077-.45-.045-.741-.04-.741h-3.039v11.75c0 .158 0 .314-.007.468 0 .02-.002.037-.003.058l-.001.026v.006a2.58 2.58 0 0 1-1.299 2.048 2.536 2.536 0 0 1-1.257.332 2.571 2.571 0 0 1-2.563-2.58 2.571 2.571 0 0 1 2.563-2.58c.268 0 .534.042.79.125l.003-3.095a5.645 5.645 0 0 0-4.35 1.273 5.963 5.963 0 0 0-1.3 1.605c-.129.22-.613 1.11-.672 2.552-.037.818.21 1.667.327 2.017v.007c.073.207.359.911.824 1.505.376.476.82.895 1.317 1.242v-.008l.007.008c1.471 1 3.102.934 3.102.934.283-.012 1.229 0 2.303-.51 1.191-.563 1.87-1.404 1.87-1.404a5.84 5.84 0 0 0 1.018-1.693c.275-.723.367-1.59.367-1.937V14.96c.037.022.528.347.528.347s.707.453 1.81.748c.792.21 1.86.255 1.86.255v-3.017c-.375.04-1.134-.078-1.91-.465Z" fill="#fff"/></svg>