<svg width="120" height="120" fill="none" xmlns="http://www.w3.org/2000/svg"><g clip-path="url(#a)"><path fill-rule="evenodd" clip-rule="evenodd" d="M120 60c0 33.137-26.863 60-60 60S0 93.137 0 60 26.863 0 60 0s60 26.863 60 60Z" fill="#00000E"/><path d="M117.859 60c0 15.909-6.448 30.311-16.88 40.743-10.431 10.431-24.834 16.88-40.743 16.88-15.908 0-30.31-6.449-40.742-16.88C9.074 90.323 2.626 75.921 2.626 60c0-15.909 6.449-30.311 16.88-40.743C29.926 8.838 44.328 2.39 60.236 2.39c15.91 0 30.312 6.448 40.743 16.88 10.432 10.419 16.88 24.821 16.88 40.73Zm-17.415 40.208C110.738 89.913 117.099 75.71 117.099 60c0-15.697-6.361-29.913-16.655-40.207C90.149 9.498 75.934 3.137 60.236 3.137c-15.697 0-29.912 6.361-40.207 16.656C9.734 30.087 3.373 44.29 3.373 60c0 15.697 6.361 29.913 16.656 40.208 10.295 10.294 24.498 16.655 40.207 16.655 15.71 0 29.926-6.361 40.208-16.655Z" fill="#fff"/><path fill-rule="evenodd" clip-rule="evenodd" d="M106.108 34.469c-.012-1.395-1.145-2.527-2.539-2.515-1.395.013-2.527 1.145-2.515 2.54.013 1.394 1.145 2.527 2.539 2.514 1.395 0 2.515-1.145 2.515-2.54Z" fill="#5C914F"/><path fill-rule="evenodd" clip-rule="evenodd" d="M112.531 60.486a2.52 2.52 0 0 0-.946-3.449 2.52 2.52 0 0 0-3.448.947 2.52 2.52 0 0 0 .946 3.448 2.52 2.52 0 0 0 3.448-.946Z" fill="#fff"/><path fill-rule="evenodd" clip-rule="evenodd" d="M105.784 86.228a2.536 2.536 0 0 0 .909-3.46 2.537 2.537 0 0 0-3.461-.909 2.537 2.537 0 0 0-.908 3.46 2.514 2.514 0 0 0 3.46.91Z" fill="#A24936"/><path fill-rule="evenodd" clip-rule="evenodd" d="M14.378 34.469c.012-1.395 1.145-2.527 2.54-2.515 1.393.013 2.526 1.145 2.514 2.54-.013 1.394-1.146 2.527-2.54 2.514-1.394 0-2.514-1.145-2.514-2.54Z" fill="#5C914F"/><path fill-rule="evenodd" clip-rule="evenodd" d="M7.954 60.486a2.52 2.52 0 0 1 .946-3.449 2.52 2.52 0 0 1 3.449.947 2.52 2.52 0 0 1-.946 3.448 2.52 2.52 0 0 1-3.449-.946Z" fill="#fff"/><path fill-rule="evenodd" clip-rule="evenodd" d="M14.701 86.228a2.537 2.537 0 0 1-.909-3.46 2.537 2.537 0 0 1 3.461-.909 2.537 2.537 0 0 1 .909 3.46 2.515 2.515 0 0 1-3.46.91Z" fill="#A24936"/><path d="M59.988 16.27a43.317 43.317 0 0 1 26.352 8.887l-2.153 1.855A40.505 40.505 0 0 0 60 19.046a40.556 40.556 0 0 0-24.871 8.477l-2.204-1.805a43.352 43.352 0 0 1 27.063-9.448Zm32.178 14.24a43.328 43.328 0 0 1 11.303 29.24 43.298 43.298 0 0 1-4.593 19.47l-.735-5.29a40.234 40.234 0 0 0 2.552-14.18c0-8.95-2.888-17.227-7.793-23.95l-.734-5.29Zm3.1 54.672a44.03 44.03 0 0 1-4.531 5.316C82.867 98.365 72 103.232 59.988 103.232c-12.013 0-22.88-4.867-30.747-12.734a44.02 44.02 0 0 1-4.531-5.316l1.892-2.14a39.702 39.702 0 0 0 4.606 5.489c7.369 7.37 17.552 11.925 28.78 11.925 11.24 0 21.41-4.556 28.78-11.925a41.225 41.225 0 0 0 4.606-5.49l1.892 2.141ZM21.1 79.232a43.346 43.346 0 0 1-4.594-19.481c0-11.24 4.27-21.486 11.266-29.203l-.722 5.29a40.526 40.526 0 0 0-7.768 23.913c0 4.992.896 9.76 2.54 14.178l-.722 5.303ZM29.938 17.129l1.22 1.717 2.34-1.668.386.548-2.34 1.668 1.332 1.867-.66.473-3.324-4.68 3.087-2.191.386.535-2.427 1.73Zm11.552-3.884c.398.871.522 1.618.398 2.24-.124.623-.51 1.083-1.158 1.37-.647.286-1.232.286-1.78-.025-.547-.311-1.02-.909-1.419-1.793-.398-.871-.523-1.606-.398-2.216.124-.61.523-1.058 1.17-1.356.635-.287 1.232-.287 1.768.012.547.286 1.02.884 1.419 1.768Zm-.785.348c-.622-1.381-1.332-1.88-2.128-1.518-.81.36-.896 1.232-.274 2.614.311.697.66 1.182 1.02 1.444.362.261.748.31 1.146.124.423-.187.647-.51.672-.958.013-.46-.124-1.021-.436-1.706Zm8.876-2.9c.261.921.286 1.68.062 2.278-.224.597-.672.996-1.344 1.182-.685.187-1.27.1-1.755-.286-.498-.386-.872-1.046-1.146-1.98-.261-.92-.286-1.667-.062-2.252.212-.585.672-.971 1.357-1.17.672-.187 1.257-.1 1.755.274.498.373.871 1.033 1.133 1.954Zm-.822.236c-.41-1.456-1.045-2.054-1.88-1.817-.846.237-1.07 1.083-.66 2.54.212.734.474 1.257.798 1.58.323.312.697.411 1.107.3.449-.125.71-.412.81-.847.087-.449.037-1.034-.175-1.756Zm7.482-3.286.386 5.054-.81.062-.386-5.054-1.88.137-.049-.66 4.556-.348.05.66-1.867.15Zm10.431 3.66c-.037.51-.261.884-.672 1.145-.41.25-.959.349-1.643.299l-2.004-.15.435-5.713 1.743.137c1.407.112 2.066.622 1.992 1.543a1.27 1.27 0 0 1-.374.847c-.224.211-.51.348-.859.386.473.087.822.261 1.058.535.25.261.362.585.324.97Zm-.958-2.714c.025-.299-.063-.523-.274-.672-.2-.15-.523-.237-.946-.261l-.946-.075-.137 1.755.958.075c.847.074 1.295-.2 1.345-.822Zm.149 2.577a.827.827 0 0 0-.324-.76c-.236-.186-.61-.298-1.108-.336l-1.07-.087-.15 2.017 1.12.087c.499.037.86-.025 1.109-.174.261-.15.398-.399.423-.747Zm8.066 3.398-.124-1.718-2.303-.66-.996 1.395-.796-.224 3.647-4.93.884.25.485 6.099-.797-.212Zm-.31-5.415-.1.15-.523.784-1.108 1.556 1.892.535-.124-2.253-.038-.772Zm4.717 6.971 2.365-5.228.735.336-2.092 4.618 2.602 1.17-.274.598-3.336-1.494Zm7.183 3.66 3.323-4.668.66.473-2.938 4.133 2.328 1.655-.386.536-2.987-2.129ZM38.403 108.585l.211-1.705-2.14-1.083-1.246 1.182-.747-.373 4.52-4.133.82.411-.684 6.075-.734-.374Zm.734-5.377-.124.124-.673.672-1.381 1.32 1.755.884.299-2.229.124-.771Zm4.855 4.394c-.237.734-.299 1.319-.2 1.767.113.449.399.747.872.897.274.087.548.074.834-.038.286-.112.56-.336.846-.672l.56.473c-.721.872-1.543 1.158-2.44.859-.709-.236-1.17-.647-1.393-1.257-.224-.61-.187-1.369.112-2.291.61-1.854 1.63-2.551 3.074-2.078.91.298 1.395.958 1.444 1.966l-.759.038c0-.336-.075-.623-.236-.872a1.13 1.13 0 0 0-.648-.498c-.46-.149-.859-.087-1.195.187-.348.262-.635.772-.871 1.519Zm9.921 5.203-.386-1.68-2.377-.287-.772 1.531-.822-.099 2.838-5.428.922.113 1.419 5.95-.822-.1Zm-1.145-5.29-.075.162-.398.858-.86 1.706 1.955.236-.473-2.203-.15-.759Zm9.672 2.838c-.025.933-.261 1.655-.722 2.141-.448.498-1.083.722-1.892.697l-1.569-.05.175-5.726 1.32.037c.933.025 1.617.287 2.066.76.435.485.647 1.195.622 2.141Zm-.822-.025c.025-.747-.112-1.295-.41-1.656-.3-.348-.785-.535-1.47-.56l-.51-.012-.137 4.406.685.025c.598.013 1.046-.162 1.357-.523.299-.373.46-.933.485-1.68Zm4.693 2.514-.697-5.688 3.872-.473.074.659-3.074.374.211 1.78 2.813-.349.075.648-2.813.348.236 1.955 3.25-.399.074.66-4.02.485Zm11.08-2.402-.997-3.548a53.57 53.57 0 0 0-.224-.821l-.1-.411c-.012.61-.037 1.046-.05 1.295l-.161 1.979-.56.162-1.183-1.606a28.902 28.902 0 0 1-.722-1.083l.361 1.232.996 3.548-.66.187-1.543-5.527.97-.274 1.32 1.792c.1.125.274.424.548.872v-.399l.025-.622.2-2.216.92-.261 1.544 5.527-.685.174Zm5.402-5.004 1.107 2.216-.709.361-1.108-2.216-3.299-1.992.785-.386 2.589 1.618.249-3.037.784-.386-.398 3.822ZM55.93 29.689c.087.373.074.722-.038 1.058-.112.336-.311.61-.597.859-.287.236-.648.41-1.083.51l-1.245.287.523 2.278-.847.199-1.37-6 2.042-.473c.71-.162 1.283-.125 1.743.1.448.223.747.622.871 1.182Zm-.847.212c-.174-.747-.747-1.009-1.718-.797l-1.095.249.547 2.352 1.133-.261c.436-.1.76-.286.971-.56.2-.262.25-.598.162-.983Zm6.697 3.87-1.73-2.576-1.083.025.062 2.627-.871.024-.15-6.149 2.191-.05c.71-.012 1.258.112 1.63.399.374.286.574.697.586 1.244.013.448-.124.834-.398 1.158-.274.324-.648.523-1.133.61l1.892 2.676-.996.013Zm-.236-4.43c-.013-.673-.486-1.009-1.407-.984l-1.245.037.05 2.141 1.27-.037c.435-.013.771-.112.995-.311.237-.212.35-.486.337-.847Zm7.207 2.564c-.236.995-.597 1.717-1.12 2.166-.523.448-1.145.585-1.88.423-.734-.175-1.245-.56-1.506-1.183-.262-.622-.286-1.431-.05-2.452.224-.996.598-1.718 1.108-2.141.498-.436 1.133-.56 1.88-.386.734.174 1.232.56 1.506 1.158.274.585.299 1.394.062 2.415Zm-.896-.212c.36-1.58.087-2.477-.834-2.689-.921-.211-1.569.473-1.93 2.054-.186.797-.211 1.432-.062 1.892.137.46.436.747.884.847.485.112.884-.013 1.195-.374.324-.36.573-.946.747-1.73Z" fill="#fff"/><path fill-rule="evenodd" clip-rule="evenodd" d="m89.328 25.394-29.34 25.232-29.515-24.161L27.1 51.224l-4.581 33.249 22.593-25.606 14.875 25.606 14.876-25.606 22.606 25.606-5.017-36.423-2.14-15.536-.984-7.12Z" fill="#fff"/></g><defs><clipPath id="a"><path fill="#fff" d="M0 0h120v120H0z"/></clipPath></defs></svg>