<svg width="252" height="90" fill="none" xmlns="http://www.w3.org/2000/svg"><path d="m.527 11.931 5-4.931 5 4.931V38.07l-5 4.931-5-4.931V11.93Z" fill="#A24936"/><path opacity=".2" d="m.527 78.069 5 4.931 5-4.931V51.93l-5-4.931-5 4.931V78.07Z" fill="#A24936"/><path d="m40.528 11.931 5-4.931 5 4.931V38.07l-5 4.931-5-4.931V11.93ZM40.528 78.069l5 4.931 5-4.931V51.93l-5-4.931-5 4.931V78.07Z" fill="#A24936"/><path opacity=".2" d="m38.596 0 4.932 5-4.932 5H12.459L7.527 5l4.932-5h26.137ZM38.596 90l4.932-5-4.932-5H12.459l-4.932 5 4.932 5h26.137Z" fill="#A24936"/><path d="m38.596 40 4.932 5-4.932 5H12.459l-4.932-5 4.932-5h26.137ZM201.473 11.931l5-4.931 5 4.931V38.07l-5 4.931-5-4.931V11.93Z" fill="#A24936"/><path opacity=".2" d="m201.473 78.069 5 4.931 5-4.931V51.93l-5-4.931-5 4.931V78.07Z" fill="#A24936"/><path d="m241.473 11.931 5-4.931 5 4.931V38.07l-5 4.931-5-4.931V11.93ZM241.473 78.069l5 4.931 5-4.931V51.93l-5-4.931-5 4.931V78.07Z" fill="#A24936"/><path opacity=".2" d="m239.541 0 4.932 5-4.932 5h-26.137l-4.931-5 4.931-5h26.137ZM239.541 90l4.932-5-4.932-5h-26.137l-4.931 5 4.931 5h26.137Z" fill="#A24936"/><path d="m239.541 40 4.932 5-4.932 5h-26.137l-4.931-5 4.931-5h26.137ZM58.528 11.931l5-4.931 5 4.931V38.07l-5 4.931-5-4.931V11.93ZM58.528 78.069l5 4.931 5-4.931V51.93l-5-4.931-5 4.931V78.07ZM98.528 11.931 103.526 7l5 4.931V38.07l-5 4.931-5-4.931V11.93ZM98.528 78.069 103.526 83l5-4.931V51.93l-5-4.931-5 4.931V78.07ZM96.596 0l4.931 5-4.931 5H70.459l-4.931-5 4.931-5h26.137ZM96.596 90l4.931-5-4.931-5H70.459l-4.931 5 4.931 5h26.137Z" fill="#A24936"/><path opacity=".2" d="m96.596 40 4.931 5-4.931 5H70.459l-4.931-5 4.931-5h26.137ZM143.473 11.931l5-4.931 5 4.931V38.07l-5 4.931-5-4.931V11.93ZM143.473 78.069l5 4.931 5-4.931V51.93l-5-4.931-5 4.931V78.07ZM183.473 11.931l5-4.931 5 4.931V38.07l-5 4.931-5-4.931V11.93ZM183.473 78.069l5 4.931 5-4.931V51.93l-5-4.931-5 4.931V78.07ZM181.541 0l4.932 5-4.932 5h-26.137l-4.931-5 4.931-5h26.137ZM181.541 90l4.932-5-4.932-5h-26.137l-4.931 5 4.931 5h26.137ZM181.541 40l4.932 5-4.932 5h-26.137l-4.931-5 4.931-5h26.137Z" fill="#A24936"/><path fill="#A24936" d="M124.527 31h10v10h-10zM124.527 49h10v10h-10z"/></svg>