<svg width="206" height="481" fill="none" xmlns="http://www.w3.org/2000/svg"><mask id="a" fill="#fff"><path d="M0 .504h174v480H0v-480Z"/></mask><path d="M174 .504h3v-3h-3v3Zm0 480v3h3v-3h-3ZM0 3.504h174v-6H0v6Zm171-3v480h6v-480h-6Zm3 477H0v6h174v-6Z" fill="#fff" mask="url(#a)"/><mask id="b" fill="#fff"><path d="M0 145.504h70v192H0v-192Z"/></mask><path d="M70 145.504h3v-3h-3v3Zm0 192v3h3v-3h-3Zm-70-189h70v-6H0v6Zm67-3v192h6v-192h-6Zm3 189H0v6h70v-6Z" fill="#fff" mask="url(#b)"/><path d="M172 166.504s32 22.424 32 74c0 51.575-32 74-32 74" stroke="#fff" stroke-width="3"/></svg>