<svg width="206" height="480" fill="none" xmlns="http://www.w3.org/2000/svg"><g opacity=".5"><mask id="a" fill="#fff"><path d="M0 0h174v480H0V0Z"/></mask><path d="M174 0h3v-3h-3v3Zm0 480v3h3v-3h-3ZM0 3h174v-6H0v6Zm171-3v480h6V0h-6Zm3 477H0v6h174v-6Z" fill="#fff" mask="url(#a)"/><mask id="b" fill="#fff"><path d="M0 145h70v192H0V145Z"/></mask><path d="M70 145h3v-3h-3v3Zm0 192v3h3v-3h-3ZM0 148h70v-6H0v6Zm67-3v192h6V145h-6Zm3 189H0v6h70v-6Z" fill="#fff" mask="url(#b)"/><path d="M172 166s32 22.424 32 74-32 74-32 74" stroke="#fff" stroke-width="3"/></g></svg>