<svg width="100" height="100" viewBox="0 0 100 100" fill="none" xmlns="http://www.w3.org/2000/svg">
<path fill-rule="evenodd" clip-rule="evenodd" d="M90.1732 49.9999C90.1732 72.1832 72.1898 90.1666 50.0065 90.1666C27.8232 90.1666 9.83984 72.1832 9.83984 49.9999C9.83984 27.8166 27.8232 9.83325 50.0065 9.83325C72.1898 9.83325 90.1732 27.8166 90.1732 49.9999Z" fill="white"/>
<path d="M88.7393 50C88.7393 60.65 84.4227 70.2917 77.4393 77.275C70.456 84.2583 60.8143 88.575 50.1643 88.575C39.5143 88.575 29.8727 84.2583 22.8893 77.275C15.9143 70.3 11.5977 60.6584 11.5977 50C11.5977 39.35 15.9143 29.7084 22.8977 22.725C29.8727 15.75 39.5143 11.4333 50.1643 11.4333C60.8143 11.4333 70.456 15.75 77.4393 22.7333C84.4227 29.7083 88.7393 39.35 88.7393 50ZM77.081 76.9167C83.9727 70.025 88.231 60.5167 88.231 50C88.231 39.4917 83.9727 29.975 77.081 23.0834C70.1893 16.1917 60.6727 11.9333 50.1643 11.9333C39.656 11.9333 30.1393 16.1917 23.2477 23.0834C16.356 29.975 12.0977 39.4833 12.0977 50C12.0977 60.5083 16.356 70.025 23.2477 76.9167C30.1393 83.8084 39.6477 88.0667 50.1643 88.0667C60.681 88.0667 70.1977 83.8084 77.081 76.9167Z" fill="#00000E"/>
<path fill-rule="evenodd" clip-rule="evenodd" d="M80.8717 32.9083C80.8633 31.9749 80.105 31.2166 79.1717 31.2249C78.2383 31.2333 77.48 31.9916 77.4883 32.9249C77.4967 33.8583 78.255 34.6166 79.1883 34.6083C80.1217 34.6083 80.8717 33.8416 80.8717 32.9083Z" fill="#5C914F"/>
<path fill-rule="evenodd" clip-rule="evenodd" d="M85.1743 50.3249C85.6409 49.5165 85.3576 48.4832 84.5409 48.0165C83.7326 47.5499 82.6993 47.8332 82.2326 48.6499C81.7659 49.4582 82.0493 50.4915 82.8659 50.9582C83.6743 51.4249 84.7076 51.1415 85.1743 50.3249Z" fill="#00000E"/>
<path fill-rule="evenodd" clip-rule="evenodd" d="M80.6554 67.5584C81.4637 67.0834 81.7304 66.05 81.2637 65.2417C80.7887 64.4334 79.7554 64.1667 78.947 64.6334C78.1387 65.1084 77.872 66.1417 78.3387 66.95C78.8137 67.7667 79.847 68.0334 80.6554 67.5584Z" fill="#A24936"/>
<path fill-rule="evenodd" clip-rule="evenodd" d="M19.4648 32.9083C19.4732 31.9749 20.2315 31.2166 21.1648 31.2249C22.0982 31.2333 22.8565 31.9916 22.8482 32.9249C22.8398 33.8583 22.0815 34.6166 21.1482 34.6083C20.2148 34.6083 19.4648 33.8416 19.4648 32.9083Z" fill="#5C914F"/>
<path fill-rule="evenodd" clip-rule="evenodd" d="M15.1662 50.3249C14.6995 49.5165 14.9829 48.4832 15.7995 48.0165C16.6079 47.5499 17.6412 47.8332 18.1079 48.6499C18.5745 49.4582 18.2912 50.4915 17.4745 50.9582C16.6662 51.4249 15.6329 51.1415 15.1662 50.3249Z" fill="#00000E"/>
<path fill-rule="evenodd" clip-rule="evenodd" d="M19.6814 67.5584C18.8731 67.0834 18.6064 66.05 19.0731 65.2417C19.5481 64.4334 20.5814 64.1667 21.3897 64.6334C22.1981 65.1084 22.4647 66.1417 21.9981 66.95C21.5231 67.7667 20.4897 68.0334 19.6814 67.5584Z" fill="#A24936"/>
<path d="M49.999 20.7249C56.6323 20.7249 62.7406 22.9415 67.6406 26.6749L66.199 27.9165C61.674 24.5665 56.074 22.5832 50.0073 22.5832C43.7406 22.5832 37.9656 24.6999 33.3573 28.2582L31.8823 27.0499C36.849 23.0999 43.149 20.7249 49.999 20.7249ZM71.5406 30.2582C76.2406 35.4249 79.1073 42.2999 79.1073 49.8332C79.1073 54.5165 77.999 58.9499 76.0323 62.8665L75.5406 59.3249C76.649 56.3749 77.249 53.1749 77.249 49.8332C77.249 43.8415 75.3156 38.2999 72.0323 33.7999L71.5406 30.2582ZM73.6156 66.8582C72.699 68.1248 71.6823 69.3165 70.5823 70.4165C65.3156 75.6832 58.0406 78.9415 49.999 78.9415C41.9573 78.9415 34.6823 75.6832 29.4156 70.4165C28.3156 69.3165 27.299 68.1248 26.3823 66.8582L27.649 65.4248C28.5656 66.7415 29.599 67.9749 30.7323 69.0999C35.6656 74.0332 42.4823 77.0832 49.999 77.0832C57.524 77.0832 64.3323 74.0332 69.2656 69.0999C70.399 67.9665 71.4323 66.7332 72.349 65.4248L73.6156 66.8582ZM23.9656 62.8748C21.999 58.9499 20.8906 54.5249 20.8906 49.8332C20.8906 42.3082 23.749 35.4499 28.4323 30.2832L27.949 33.8249C24.6823 38.3165 22.749 43.8499 22.749 49.8332C22.749 53.1749 23.349 56.3665 24.449 59.3249L23.9656 62.8748Z" fill="#00000E"/>
<path d="M29.8797 21.2999L30.6964 22.4499L32.263 21.3332L32.5214 21.6999L30.9547 22.8165L31.8464 24.0665L31.4047 24.3832L29.1797 21.2499L31.2464 19.7832L31.5047 20.1415L29.8797 21.2999ZM37.613 18.6999C37.8797 19.2832 37.963 19.7832 37.8797 20.1999C37.7964 20.6165 37.538 20.9249 37.1047 21.1165C36.6714 21.3082 36.2797 21.3082 35.913 21.0999C35.5464 20.8915 35.2297 20.4915 34.963 19.8999C34.6964 19.3165 34.613 18.8249 34.6964 18.4165C34.7797 18.0082 35.0464 17.7082 35.4797 17.5082C35.9047 17.3165 36.3047 17.3165 36.663 17.5165C37.0297 17.7082 37.3464 18.1082 37.613 18.6999ZM37.088 18.9332C36.6714 18.0082 36.1964 17.6749 35.663 17.9165C35.1214 18.1582 35.063 18.7415 35.4797 19.6665C35.688 20.1332 35.9214 20.4582 36.163 20.6332C36.4047 20.8082 36.663 20.8415 36.9297 20.7165C37.213 20.5915 37.363 20.3749 37.3797 20.0749C37.388 19.7665 37.2964 19.3915 37.088 18.9332ZM43.0297 16.9915C43.2047 17.6082 43.2214 18.1165 43.0714 18.5165C42.9214 18.9165 42.6214 19.1832 42.1714 19.3082C41.713 19.4332 41.3214 19.3749 40.9964 19.1165C40.663 18.8582 40.413 18.4165 40.2297 17.7915C40.0547 17.1749 40.038 16.6749 40.188 16.2832C40.3297 15.8915 40.638 15.6332 41.0964 15.4999C41.5464 15.3749 41.938 15.4332 42.2714 15.6832C42.6047 15.9332 42.8547 16.3749 43.0297 16.9915ZM42.4797 17.1499C42.2047 16.1749 41.7797 15.7749 41.2214 15.9332C40.6547 16.0915 40.5047 16.6582 40.7797 17.6332C40.9214 18.1249 41.0964 18.4749 41.313 18.6915C41.5297 18.8999 41.7797 18.9665 42.0547 18.8915C42.3547 18.8082 42.5297 18.6165 42.5964 18.3249C42.6547 18.0249 42.6214 17.6332 42.4797 17.1499ZM47.488 14.9499L47.7464 18.3332L47.2047 18.3749L46.9464 14.9915L45.688 15.0832L45.6547 14.6415L48.7047 14.4082L48.738 14.8499L47.488 14.9499ZM54.4714 17.3999C54.4464 17.7415 54.2964 17.9915 54.0214 18.1665C53.7464 18.3332 53.3797 18.3999 52.9214 18.3665L51.5797 18.2665L51.8714 14.4415L53.038 14.5332C53.9797 14.6082 54.4214 14.9499 54.3714 15.5665C54.3547 15.7999 54.2714 15.9832 54.1214 16.1332C53.9714 16.2749 53.7797 16.3665 53.5464 16.3915C53.863 16.4499 54.0964 16.5665 54.2547 16.7499C54.4214 16.9249 54.4964 17.1415 54.4714 17.3999ZM53.8297 15.5832C53.8464 15.3832 53.788 15.2332 53.6464 15.1332C53.513 15.0332 53.2964 14.9749 53.013 14.9582L52.3797 14.9082L52.288 16.0832L52.9297 16.1332C53.4964 16.1832 53.7964 15.9999 53.8297 15.5832ZM53.9297 17.3082C53.9464 17.0915 53.8714 16.9249 53.713 16.7999C53.5547 16.6749 53.3047 16.5999 52.9714 16.5749L52.2547 16.5165L52.1547 17.8665L52.9047 17.9249C53.238 17.9499 53.4797 17.9082 53.6464 17.8082C53.8214 17.7082 53.913 17.5415 53.9297 17.3082ZM59.3297 19.5832L59.2464 18.4332L57.7047 17.9915L57.038 18.9249L56.5047 18.7749L58.9464 15.4749L59.538 15.6415L59.863 19.7249L59.3297 19.5832ZM59.1214 15.9582L59.0547 16.0582L58.7047 16.5832L57.963 17.6249L59.2297 17.9832L59.1464 16.4749L59.1214 15.9582ZM62.2797 20.6249L63.863 17.1249L64.3547 17.3499L62.9547 20.4415L64.6964 21.2249L64.513 21.6249L62.2797 20.6249ZM67.088 23.0749L69.313 19.9499L69.7547 20.2665L67.788 23.0332L69.3464 24.1415L69.088 24.4999L67.088 23.0749Z" fill="#00000E"/>
<path d="M35.5469 82.5248L35.6885 81.3832L34.2552 80.6582L33.4219 81.4498L32.9219 81.1998L35.9469 78.4332L36.4969 78.7082L36.0385 82.7748L35.5469 82.5248ZM36.0385 78.9248L35.9552 79.0082L35.5052 79.4582L34.5802 80.3415L35.7552 80.9332L35.9552 79.4415L36.0385 78.9248ZM39.2885 81.8665C39.1302 82.3582 39.0885 82.7498 39.1552 83.0498C39.2302 83.3498 39.4219 83.5498 39.7385 83.6498C39.9219 83.7082 40.1052 83.6998 40.2969 83.6248C40.4885 83.5498 40.6719 83.3998 40.8635 83.1748L41.2385 83.4915C40.7552 84.0748 40.2052 84.2665 39.6052 84.0665C39.1302 83.9082 38.8219 83.6332 38.6719 83.2248C38.5219 82.8165 38.5469 82.3082 38.7469 81.6915C39.1552 80.4498 39.8385 79.9832 40.8052 80.2998C41.4135 80.4998 41.7385 80.9415 41.7719 81.6165L41.2635 81.6415C41.2635 81.4165 41.2135 81.2248 41.1052 81.0582C41.0052 80.8915 40.8552 80.7832 40.6719 80.7248C40.3635 80.6248 40.0969 80.6665 39.8719 80.8498C39.6385 81.0248 39.4469 81.3665 39.2885 81.8665ZM45.9302 85.3498L45.6719 84.2248L44.0802 84.0332L43.5635 85.0582L43.0135 84.9915L44.9135 81.3582L45.5302 81.4332L46.4802 85.4165L45.9302 85.3498ZM45.1635 81.8082L45.1135 81.9165L44.8469 82.4915L44.2719 83.6332L45.5802 83.7915L45.2635 82.3165L45.1635 81.8082ZM51.6385 83.7082C51.6219 84.3332 51.4635 84.8165 51.1552 85.1415C50.8552 85.4748 50.4302 85.6248 49.8885 85.6082L48.8385 85.5748L48.9552 81.7415L49.8385 81.7665C50.4635 81.7832 50.9219 81.9582 51.2219 82.2748C51.5135 82.5998 51.6552 83.0748 51.6385 83.7082ZM51.0885 83.6915C51.1052 83.1915 51.0135 82.8248 50.8135 82.5832C50.6135 82.3498 50.2885 82.2248 49.8302 82.2082L49.4885 82.1998L49.3969 85.1498L49.8552 85.1665C50.2552 85.1748 50.5552 85.0582 50.7635 84.8165C50.9635 84.5665 51.0719 84.1915 51.0885 83.6915ZM54.2302 85.3748L53.7635 81.5665L56.3552 81.2498L56.4052 81.6915L54.3469 81.9415L54.4885 83.1332L56.3719 82.8998L56.4219 83.3332L54.5385 83.5665L54.6969 84.8748L56.8719 84.6082L56.9219 85.0498L54.2302 85.3748ZM61.6469 83.7665L60.9802 81.3915C60.9135 81.1415 60.8635 80.9582 60.8302 80.8415L60.7635 80.5665C60.7552 80.9748 60.7385 81.2665 60.7302 81.4332L60.6219 82.7582L60.2469 82.8665L59.4552 81.7915C59.3969 81.7165 59.2385 81.4748 58.9719 81.0665L59.2135 81.8915L59.8802 84.2665L59.4385 84.3915L58.4052 80.6915L59.0552 80.5082L59.9385 81.7082C60.0052 81.7915 60.1219 81.9915 60.3052 82.2915V82.0248L60.3219 81.6082L60.4552 80.1248L61.0719 79.9498L62.1052 83.6498L61.6469 83.7665ZM65.2635 80.4165L66.0052 81.8998L65.5302 82.1415L64.7885 80.6582L62.5802 79.3248L63.1052 79.0665L64.8385 80.1498L65.0052 78.1165L65.5302 77.8582L65.2635 80.4165Z" fill="#00000E"/>
<path d="M47.2807 29.7082C47.3391 29.9582 47.3307 30.1916 47.2557 30.4166C47.1807 30.6416 47.0474 30.8249 46.8557 30.9916C46.6641 31.1499 46.4224 31.2666 46.1307 31.3332L45.2974 31.5249L45.6474 33.0499L45.0807 33.1832L44.1641 29.1666L45.5307 28.8499C46.0057 28.7416 46.3891 28.7666 46.6974 28.9166C46.9974 29.0666 47.1974 29.3332 47.2807 29.7082ZM46.7141 29.8499C46.5974 29.3499 46.2141 29.1749 45.5641 29.3166L44.8307 29.4832L45.1974 31.0582L45.9557 30.8832C46.2474 30.8166 46.4641 30.6916 46.6057 30.5082C46.7391 30.3332 46.7724 30.1082 46.7141 29.8499ZM51.1974 32.4416L50.0391 30.7166L49.3141 30.7332L49.3557 32.4916L48.7724 32.5082L48.6724 28.3916L50.1391 28.3582C50.6141 28.3499 50.9807 28.4332 51.2307 28.6249C51.4807 28.8166 51.6141 29.0916 51.6224 29.4582C51.6307 29.7582 51.5391 30.0166 51.3557 30.2332C51.1724 30.4499 50.9224 30.5832 50.5974 30.6416L51.8641 32.4332L51.1974 32.4416ZM51.0391 29.4749C51.0307 29.0249 50.7141 28.7999 50.0974 28.8166L49.2641 28.8416L49.2974 30.2749L50.1474 30.2499C50.4391 30.2416 50.6641 30.1749 50.8141 30.0416C50.9724 29.8999 51.0474 29.7166 51.0391 29.4749ZM55.8641 31.1916C55.7057 31.8582 55.4641 32.3416 55.1141 32.6416C54.7641 32.9416 54.3474 33.0332 53.8557 32.9249C53.3641 32.8082 53.0224 32.5499 52.8474 32.1332C52.6724 31.7166 52.6557 31.1749 52.8141 30.4916C52.9641 29.8249 53.2141 29.3416 53.5557 29.0582C53.8891 28.7666 54.3141 28.6832 54.8141 28.7999C55.3057 28.9166 55.6391 29.1749 55.8224 29.5749C56.0057 29.9666 56.0224 30.5082 55.8641 31.1916ZM55.2641 31.0499C55.5057 29.9916 55.3224 29.3916 54.7057 29.2499C54.0891 29.1082 53.6557 29.5666 53.4141 30.6249C53.2891 31.1582 53.2724 31.5832 53.3724 31.8916C53.4641 32.1999 53.6641 32.3916 53.9641 32.4582C54.2891 32.5332 54.5557 32.4499 54.7641 32.2082C54.9807 31.9666 55.1474 31.5749 55.2641 31.0499Z" fill="#00000E"/>
<path fill-rule="evenodd" clip-rule="evenodd" d="M69.6391 26.8333L49.9974 43.7249L30.2391 27.5499L27.9807 44.1249L24.9141 66.3832L40.0391 49.2416L49.9974 66.3832L59.9557 49.2416L75.0891 66.3832L71.7307 41.9999L70.2974 31.5999L69.6391 26.8333Z" fill="#00000E"/>
</svg>
