<svg width="744" height="960" fill="none" xmlns="http://www.w3.org/2000/svg"><g clip-path="url(#a)"><path fill="#5C914F" d="M0 0h744v960H0z"/><g opacity=".4"><path opacity=".5" fill="#fff" d="M0 482h744v-3H0z"/><circle cx="372" cy="480" r="103.5" stroke="#fff" stroke-opacity=".5" stroke-width="3"/><g opacity=".5"><mask id="b" fill="#fff"><path d="M172 960V815h400v145H172Z"/></mask><path d="M172 815v-3h-3v3h3Zm400 0h3v-3h-3v3ZM175 960V815h-6v145h6Zm-3-142h400v-6H172v6Zm397-3v145h6V815h-6Z" fill="#fff" mask="url(#b)"/><mask id="c" fill="#fff"><path d="M292.833 960v-58.333h160V960h-160Z"/></mask><path d="M292.833 901.667v-3h-3v3h3Zm160 0h3v-3h-3v3Zm-157 58.333v-58.333h-6V960h6Zm-3-55.333h160v-6h-160v6Zm157-3V960h6v-58.333h-6Z" fill="#fff" mask="url(#c)"/><path d="M310.333 816.667S329.02 790 372 790c42.98 0 61.667 26.667 61.667 26.667" stroke="#fff" stroke-width="3"/></g><g opacity=".5"><mask id="d" fill="#fff"><path d="M172 0v145h400V0H172Z"/></mask><path d="M172 145v3h-3v-3h3Zm400 0h3v3h-3v-3ZM175 0v145h-6V0h6Zm-3 142h400v6H172v-6Zm397 3V0h6v145h-6Z" fill="#fff" mask="url(#d)"/><mask id="e" fill="#fff"><path d="M292.833 0v58.333h160V0h-160Z"/></mask><path d="M292.833 58.333v3h-3v-3h3Zm160 0h3v3h-3v-3ZM295.833 0v58.333h-6V0h6Zm-3 55.333h160v6h-160v-6Zm157 3V0h6v58.333h-6Z" fill="#fff" mask="url(#e)"/><path d="M310.333 143.333S329.02 170 372 170c42.98 0 61.667-26.667 61.667-26.667" stroke="#fff" stroke-width="3"/></g></g></g><defs><clipPath id="a"><path fill="#fff" d="M0 0h744v960H0z"/></clipPath></defs></svg>