<svg width="36" height="36" viewBox="0 0 36 36" fill="none" xmlns="http://www.w3.org/2000/svg">
<path d="M28.4001 12.3764C27.6345 12.7223 26.8093 12.9495 25.9542 13.0583C26.8292 12.5345 27.5053 11.7044 27.8234 10.7063C26.9982 11.2004 26.0835 11.5463 25.119 11.7439C24.3336 10.894 23.2299 10.3999 21.9772 10.3999C19.6406 10.3999 17.7316 12.2973 17.7316 14.6394C17.7316 14.9754 17.7714 15.3016 17.841 15.6079C14.3014 15.43 11.1496 13.7401 9.05172 11.1806C8.68385 11.8032 8.47505 12.5345 8.47505 13.3053C8.47505 14.7778 9.22075 16.0823 10.3741 16.8234C9.66817 16.8234 9.01195 16.6258 8.43528 16.3293V16.359C8.43528 18.4145 9.90679 20.134 11.8555 20.5194C11.2299 20.6896 10.573 20.7133 9.93662 20.5886C10.2067 21.4311 10.7355 22.1682 11.4489 22.6964C12.1623 23.2247 13.0243 23.5174 13.9137 23.5336C12.406 24.7199 10.5371 25.3611 8.61425 25.3519C8.2762 25.3519 7.93815 25.3321 7.6001 25.2926C9.4892 26.4983 11.7362 27.1999 14.1424 27.1999C21.9772 27.1999 26.2823 20.7368 26.2823 15.1335C26.2823 14.9458 26.2823 14.7679 26.2724 14.5801C27.1076 13.9872 27.8234 13.2361 28.4001 12.3764Z" fill="white"/>
</svg>
