<svg width="36" height="36" viewBox="0 0 36 36" fill="none" xmlns="http://www.w3.org/2000/svg">
<path d="M10.0153 17.3626C10.0153 17.3626 17.3394 14.2778 19.8795 13.1916C20.8532 12.7571 24.1554 11.3667 24.1554 11.3667C24.1554 11.3667 25.6795 10.7585 25.5525 12.2357C25.5101 12.844 25.1715 14.9729 24.8328 17.2757C24.3247 20.5343 23.7744 24.097 23.7744 24.097C23.7744 24.097 23.6897 25.0963 22.97 25.2701C22.2503 25.4439 21.0649 24.6619 20.8532 24.4881C20.6838 24.3577 17.678 22.4025 16.5773 21.4467C16.2809 21.186 15.9423 20.6647 16.6196 20.0564C18.1437 18.6226 19.9641 16.8412 21.0649 15.7116C21.5729 15.1902 22.0809 13.9736 19.9641 15.4508C16.9583 17.5798 13.9948 19.5784 13.9948 19.5784C13.9948 19.5784 13.3174 20.0129 12.0474 19.6219C10.7773 19.2309 9.29551 18.7095 9.29551 18.7095C9.29551 18.7095 8.27951 18.0578 10.0153 17.3626Z" fill="white"/>
</svg>
