<svg width="56" height="56" viewBox="0 0 56 56" fill="none" xmlns="http://www.w3.org/2000/svg">
<path fill-rule="evenodd" clip-rule="evenodd" d="M38.7203 22.1875C38.8872 21.6588 38.7203 21.2744 37.982 21.2744H35.5272C34.908 21.2744 34.622 21.6109 34.4552 21.9709C34.4552 21.9709 33.1923 25.0459 31.4289 27.0395C30.857 27.6161 30.595 27.8083 30.2852 27.8083C30.1183 27.8083 29.9036 27.6161 29.9036 27.0878V22.1627C29.9036 21.5383 29.7133 21.25 29.1887 21.25H25.3281C24.9466 21.25 24.7084 21.5383 24.7084 21.8266C24.7084 22.427 25.5902 22.5714 25.6853 24.2528V27.9062C25.6853 28.6989 25.5447 28.8438 25.2325 28.8438C24.3986 28.8438 22.3731 25.7448 21.1581 22.2137C20.9219 21.5144 20.6819 21.25 20.0622 21.25H17.5839C16.8691 21.25 16.75 21.5861 16.75 21.9466C16.75 22.5953 17.5839 25.862 20.6341 30.1858C22.6595 33.1389 25.5428 34.7261 28.1402 34.7261C29.7133 34.7261 29.9036 34.3656 29.9036 33.7652V31.5311C29.9036 30.8106 30.0466 30.6906 30.5472 30.6906C30.9044 30.6906 31.548 30.8823 33.0016 32.2998C34.6694 33.9813 34.9553 34.75 35.8848 34.75H38.3392C39.0541 34.75 39.3878 34.3895 39.197 33.693C38.9828 32.9964 38.1723 31.9877 37.1238 30.7867C36.5519 30.1145 35.6941 29.3697 35.432 29.0092C35.0748 28.5287 35.17 28.3366 35.432 27.9044C35.4081 27.9044 38.4109 23.6284 38.7203 22.1856" fill="white"/>
<rect x="0.5" y="0.5" width="55" height="55" rx="27.5" stroke="white" stroke-opacity="0.5"/>
</svg>
