<svg width="36" height="36" viewBox="0 0 36 36" fill="none" xmlns="http://www.w3.org/2000/svg">
<path d="M9 26.3334L10.2915 21.5314C9.24993 19.6608 8.91903 17.478 9.35947 15.3835C9.79991 13.289 10.9822 11.4233 12.6893 10.1287C14.3964 8.8342 16.5138 8.19769 18.6531 8.33598C20.7923 8.47427 22.8099 9.3781 24.3355 10.8816C25.8611 12.3851 26.7925 14.3875 26.9586 16.5212C27.1248 18.6549 26.5147 20.7769 25.2402 22.4978C23.9658 24.2187 22.1124 25.423 20.0203 25.8898C17.9282 26.3566 15.7376 26.0545 13.8506 25.039L9 26.3334ZM14.0845 23.2421L14.3845 23.4197C15.7513 24.2285 17.3477 24.5632 18.9249 24.3717C20.5022 24.1801 21.9717 23.473 23.1044 22.3606C24.237 21.2483 24.9693 19.793 25.1871 18.2218C25.4049 16.6505 25.096 15.0514 24.3084 13.6738C23.5208 12.2961 22.2989 11.2173 20.833 10.6053C19.3671 9.99334 17.7397 9.88267 16.2042 10.2905C14.6688 10.6984 13.3116 11.6019 12.3442 12.8602C11.3768 14.1185 10.8535 15.661 10.8558 17.2472C10.8546 18.5625 11.2189 19.8523 11.9083 20.9731L12.0965 21.2827L11.3745 23.9629L14.0845 23.2421Z" fill="white"/>
<path fill-rule="evenodd" clip-rule="evenodd" d="M21.3654 18.4806C21.1895 18.339 20.9836 18.2393 20.7633 18.1892C20.543 18.139 20.3142 18.1397 20.0942 18.1912C19.7637 18.3283 19.5502 18.8461 19.3366 19.1049C19.2916 19.167 19.2254 19.2105 19.1506 19.2273C19.0757 19.2442 18.9972 19.2331 18.9299 19.1963C17.7199 18.7232 16.7058 17.8556 16.0521 16.7344C15.9963 16.6644 15.9699 16.5756 15.9785 16.4866C15.987 16.3976 16.0298 16.3154 16.0978 16.2573C16.336 16.0219 16.5109 15.7303 16.6063 15.4096C16.6275 15.0558 16.5463 14.7034 16.3724 14.3944C16.238 13.9611 15.9821 13.5754 15.6351 13.2827C15.4562 13.2023 15.2577 13.1754 15.0638 13.2051C14.8698 13.2348 14.6886 13.32 14.542 13.4502C14.2875 13.6694 14.0855 13.9428 13.9508 14.2503C13.8162 14.5578 13.7524 14.8915 13.764 15.2268C13.7648 15.4152 13.7887 15.6027 13.8352 15.7852C13.9533 16.2237 14.1349 16.6427 14.3742 17.0288C14.5469 17.3246 14.7353 17.611 14.9386 17.8867C15.5993 18.7922 16.4299 19.5611 17.3842 20.1506C17.8631 20.4502 18.3749 20.6937 18.9095 20.8765C19.4649 21.1278 20.0781 21.2243 20.684 21.1557C21.0293 21.1035 21.3563 20.9674 21.6365 20.7594C21.9167 20.5514 22.1413 20.2778 22.2907 19.9628C22.3785 19.7725 22.4051 19.5597 22.367 19.3537C22.2755 18.9323 21.7111 18.6836 21.3654 18.4806Z" fill="white"/>
</svg>
