<svg width="120" height="120" viewBox="0 0 120 120" fill="none" xmlns="http://www.w3.org/2000/svg">
<g clip-path="url(#clip0_910_3836)">
<path fill-rule="evenodd" clip-rule="evenodd" d="M120 60C120 93.1369 93.1369 120 60 120C26.8631 120 0 93.1369 0 60C0 26.8631 26.8631 0 60 0C93.1369 0 120 26.8631 120 60Z" fill="#00000E"/>
<path d="M117.859 60.0001C117.859 75.9088 111.411 90.3113 100.979 100.743C90.5476 111.174 76.1451 117.623 60.2364 117.623C44.3277 117.623 29.9252 111.174 19.4937 100.743C9.0746 90.3237 2.62646 75.9213 2.62646 60.0001C2.62646 44.0914 9.0746 29.6889 19.5061 19.2574C29.9252 8.83827 44.3277 2.39014 60.2364 2.39014C76.1451 2.39014 90.5476 8.83827 100.979 19.2698C111.411 29.6889 117.859 44.0914 117.859 60.0001ZM100.444 100.208C110.738 89.913 117.099 75.7096 117.099 60.0001C117.099 44.303 110.738 30.0872 100.444 19.7926C90.1493 9.49802 75.9335 3.13702 60.2364 3.13702C44.5393 3.13702 30.3236 9.49802 20.029 19.7926C9.73435 30.0872 3.37335 44.2906 3.37335 60.0001C3.37335 75.6972 9.73435 89.913 20.029 100.208C30.3236 110.502 44.5269 116.863 60.2364 116.863C75.946 116.863 90.1617 110.502 100.444 100.208Z" fill="white"/>
<path fill-rule="evenodd" clip-rule="evenodd" d="M106.108 34.4687C106.096 33.0745 104.963 31.9418 103.569 31.9542C102.174 31.9667 101.042 33.0994 101.054 34.4936C101.067 35.8878 102.199 37.0206 103.593 37.0081C104.988 37.0081 106.108 35.8629 106.108 34.4687Z" fill="#5C914F"/>
<path fill-rule="evenodd" clip-rule="evenodd" d="M112.531 60.4856C113.228 59.2781 112.805 57.7345 111.585 57.0374C110.378 56.3403 108.834 56.7636 108.137 57.9835C107.44 59.191 107.863 60.7345 109.083 61.4316C110.291 62.1287 111.834 61.7055 112.531 60.4856Z" fill="white"/>
<path fill-rule="evenodd" clip-rule="evenodd" d="M105.784 86.2285C106.992 85.5189 107.39 83.9753 106.693 82.7679C105.984 81.5604 104.44 81.1621 103.232 81.8592C102.025 82.5687 101.627 84.1123 102.324 85.3197C103.033 86.5397 104.577 86.938 105.784 86.2285Z" fill="#A24936"/>
<path fill-rule="evenodd" clip-rule="evenodd" d="M14.3777 34.4687C14.3901 33.0745 15.5229 31.9418 16.9171 31.9542C18.3113 31.9667 19.4441 33.0994 19.4316 34.4936C19.4192 35.8878 18.2864 37.0206 16.8922 37.0081C15.498 37.0081 14.3777 35.8629 14.3777 34.4687Z" fill="#5C914F"/>
<path fill-rule="evenodd" clip-rule="evenodd" d="M7.95443 60.4856C7.25734 59.2781 7.68057 57.7345 8.90049 57.0374C10.108 56.3403 11.6515 56.7636 12.3486 57.9835C13.0457 59.191 12.6225 60.7345 11.4026 61.4316C10.1951 62.1287 8.65153 61.7055 7.95443 60.4856Z" fill="white"/>
<path fill-rule="evenodd" clip-rule="evenodd" d="M14.7012 86.2285C13.4938 85.5189 13.0954 83.9753 13.7925 82.7679C14.5021 81.5604 16.0456 81.1621 17.2531 81.8592C18.4606 82.5687 18.8589 84.1123 18.1618 85.3197C17.4523 86.5397 15.9087 86.938 14.7012 86.2285Z" fill="#A24936"/>
<path d="M59.9877 16.2695C69.8964 16.2695 79.0209 19.5807 86.3404 25.1575L84.1868 27.0123C77.4275 22.0081 69.0624 19.0455 60.0001 19.0455C50.6391 19.0455 42.0126 22.2073 35.1288 27.5226L32.9254 25.7177C40.3445 19.8172 49.7553 16.2695 59.9877 16.2695ZM92.1661 30.5102C99.1868 38.228 103.469 48.4977 103.469 59.7509C103.469 66.7467 101.813 73.3691 98.8756 79.2197L98.1412 73.9293C99.7968 69.5226 100.693 64.7426 100.693 59.7509C100.693 50.8006 97.8051 42.5226 92.9005 35.8007L92.1661 30.5102ZM95.2657 85.1824C93.8964 87.0745 92.3777 88.8546 90.7346 90.4977C82.8673 98.365 72.0001 103.232 59.9877 103.232C47.9752 103.232 37.108 98.365 29.2408 90.4977C27.5976 88.8546 26.079 87.0745 24.7097 85.1824L26.6018 83.0413C27.9711 85.0081 29.5146 86.8504 31.2076 88.5309C38.5769 95.9002 48.7595 100.456 59.9877 100.456C71.2283 100.456 81.3985 95.9002 88.7678 88.5309C90.4607 86.838 92.0043 84.9957 93.3736 83.0413L95.2657 85.1824ZM21.0997 79.2322C18.162 73.3691 16.5063 66.7592 16.5063 59.7509C16.5063 48.5102 20.7761 38.2654 27.7719 30.5475L27.0499 35.838C22.1702 42.5475 19.2823 50.8131 19.2823 59.7509C19.2823 64.7426 20.1785 69.5102 21.8217 73.9293L21.0997 79.2322Z" fill="white"/>
<path d="M29.9377 17.1286L31.1576 18.8464L33.4979 17.1784L33.8838 17.7261L31.5435 19.3941L32.8755 21.2614L32.2157 21.7344L28.8921 17.0539L31.9792 14.863L32.3651 15.3983L29.9377 17.1286ZM41.4896 13.2448C41.8879 14.1161 42.0124 14.863 41.8879 15.4854C41.7635 16.1078 41.3776 16.5684 40.7303 16.8547C40.083 17.141 39.4979 17.141 38.9502 16.8298C38.4025 16.5186 37.9294 15.9211 37.5311 15.0373C37.1328 14.1659 37.0083 13.4315 37.1328 12.8215C37.2572 12.2116 37.6556 11.7634 38.3029 11.4647C38.9377 11.1784 39.5352 11.1784 40.0705 11.4771C40.6182 11.7634 41.0913 12.361 41.4896 13.2448ZM40.7054 13.5933C40.083 12.2116 39.3734 11.7137 38.5767 12.0746C37.7676 12.4356 37.6805 13.307 38.3029 14.6888C38.6141 15.3859 38.9626 15.8713 39.3236 16.1327C39.6846 16.3942 40.0705 16.4439 40.4689 16.2572C40.8921 16.0705 41.1162 15.7468 41.1411 15.2987C41.1535 14.8381 41.0166 14.278 40.7054 13.5933ZM49.5809 10.6929C49.8423 11.6141 49.8672 12.3734 49.6431 12.9709C49.4191 13.5684 48.9709 13.9668 48.2987 14.1535C47.6141 14.3402 47.029 14.2531 46.5435 13.8672C46.0456 13.4813 45.6722 12.8215 45.3983 11.8879C45.1369 10.9668 45.112 10.2199 45.3361 9.63481C45.5477 9.04975 46.0083 8.66386 46.6929 8.46469C47.3651 8.27797 47.9502 8.36511 48.4481 8.73855C48.946 9.11199 49.3195 9.77174 49.5809 10.6929ZM48.7593 10.9294C48.3485 9.47299 47.7137 8.87548 46.8796 9.11199C46.0332 9.34851 45.8091 10.195 46.2199 11.6514C46.4315 12.3859 46.6929 12.9087 47.0166 13.2323C47.3402 13.5435 47.7137 13.6431 48.1245 13.5311C48.5726 13.4066 48.834 13.1203 48.9336 12.6846C49.0207 12.2365 48.9709 11.6514 48.7593 10.9294ZM56.2406 7.64311L56.6265 12.6971L55.8174 12.7593L55.4315 7.70535L53.5518 7.84228L53.502 7.18253L58.0581 6.83398L58.1079 7.49374L56.2406 7.64311ZM66.6722 11.3029C66.6348 11.8132 66.4108 12.1867 66 12.4481C65.5892 12.6971 65.0415 12.7966 64.3568 12.7468L62.3527 12.5975L62.7883 6.88378L64.5311 7.02071C65.9377 7.13274 66.5975 7.64311 66.5228 8.56428C66.4979 8.91282 66.3734 9.18668 66.1493 9.41075C65.9253 9.62237 65.639 9.7593 65.2904 9.79664C65.7635 9.88378 66.112 10.0581 66.3485 10.3319C66.5975 10.5933 66.7095 10.917 66.6722 11.3029ZM65.7137 8.58917C65.7386 8.29042 65.6514 8.06635 65.4398 7.91697C65.2406 7.7676 64.917 7.68046 64.4937 7.65556L63.5477 7.58087L63.4108 9.33606L64.3693 9.41075C65.2157 9.48544 65.6639 9.21158 65.7137 8.58917ZM65.863 11.1659C65.8879 10.8423 65.7759 10.5933 65.5394 10.4066C65.3029 10.2199 64.9294 10.1078 64.4315 10.0705L63.361 9.98336L63.2116 12L64.3319 12.0871C64.8298 12.1244 65.1908 12.0622 65.4398 11.9128C65.7012 11.7634 65.8381 11.5145 65.863 11.1659ZM73.9294 14.5643L73.8049 12.8464L71.502 12.1867L70.5062 13.5809L69.7095 13.3568L73.3568 8.42735L74.2406 8.67631L74.7261 14.7759L73.9294 14.5643ZM73.6182 9.14934L73.5186 9.29872L72.9958 10.0829L71.8879 11.639L73.78 12.1742L73.6556 9.92112L73.6182 9.14934ZM78.3361 16.1203L80.7012 10.8921L81.4356 11.2282L79.3444 15.8464L81.946 17.0166L81.6722 17.6141L78.3361 16.1203ZM85.5186 19.78L88.8423 15.112L89.502 15.585L86.5643 19.7178L88.8921 21.3734L88.5062 21.9087L85.5186 19.78Z" fill="white"/>
<path d="M38.4026 108.585L38.6142 106.88L36.4731 105.797L35.2283 106.979L34.4814 106.606L39.0001 102.473L39.8217 102.884L39.137 108.959L38.4026 108.585ZM39.137 103.208L39.0126 103.332L38.3404 104.004L36.9586 105.324L38.7138 106.208L39.0126 103.979L39.137 103.208ZM43.9918 107.602C43.7553 108.336 43.6931 108.921 43.7926 109.369C43.9047 109.818 44.191 110.116 44.664 110.266C44.9379 110.353 45.2117 110.34 45.498 110.228C45.7843 110.116 46.0582 109.892 46.3445 109.556L46.9047 110.029C46.1827 110.901 45.3611 111.187 44.4648 110.888C43.7553 110.652 43.2947 110.241 43.0707 109.631C42.8466 109.021 42.8839 108.262 43.1827 107.34C43.7926 105.486 44.8134 104.789 46.2574 105.262C47.1661 105.56 47.6516 106.22 47.7014 107.228L46.942 107.266C46.942 106.93 46.8673 106.643 46.7055 106.394C46.5561 106.145 46.3321 105.984 46.0582 105.896C45.5976 105.747 45.1993 105.809 44.8632 106.083C44.5146 106.345 44.2283 106.855 43.9918 107.602ZM53.913 112.805L53.5271 111.125L51.1495 110.838L50.3777 112.369L49.5561 112.27L52.3943 106.842L53.3155 106.955L54.7346 112.905L53.913 112.805ZM52.7677 107.515L52.6931 107.677L52.2947 108.535L51.4358 110.241L53.3902 110.477L52.9171 108.274L52.7677 107.515ZM62.4399 110.353C62.4151 111.286 62.1785 112.008 61.718 112.494C61.2698 112.992 60.635 113.216 59.8258 113.191L58.2574 113.141L58.4316 107.415L59.7511 107.452C60.6848 107.477 61.3694 107.739 61.8175 108.212C62.2532 108.697 62.4648 109.407 62.4399 110.353ZM61.6184 110.328C61.6433 109.581 61.5063 109.033 61.2076 108.672C60.9088 108.324 60.4234 108.137 59.7387 108.112L59.2283 108.1L59.0914 112.506L59.776 112.531C60.3736 112.544 60.8217 112.369 61.1329 112.008C61.4317 111.635 61.5935 111.075 61.6184 110.328ZM66.3113 112.842L65.6142 107.154L69.4856 106.681L69.5603 107.34L66.4856 107.714L66.6972 109.494L69.5105 109.145L69.5852 109.793L66.7719 110.141L67.0084 112.096L70.2574 111.697L70.3321 112.357L66.3113 112.842ZM77.3902 110.44L76.3943 106.892C76.2947 106.519 76.22 106.245 76.1702 106.071L76.0707 105.66C76.0582 106.27 76.0333 106.706 76.0209 106.955L75.859 108.934L75.2989 109.096L74.1163 107.49C74.0292 107.378 73.7926 107.017 73.3943 106.407L73.7553 107.639L74.7511 111.187L74.0914 111.374L72.5478 105.847L73.5188 105.573L74.8383 107.365C74.9379 107.49 75.1121 107.789 75.386 108.237V107.838L75.4109 107.216L75.6101 105L76.5312 104.739L78.0748 110.266L77.3902 110.44ZM82.7926 105.436L83.9005 107.652L83.191 108.013L82.0831 105.797L78.7843 103.805L79.5686 103.419L82.1578 105.037L82.4067 102L83.191 101.614L82.7926 105.436Z" fill="white"/>
<path d="M55.9295 29.6888C56.0167 30.0623 56.0042 30.4108 55.8922 30.7469C55.7801 31.083 55.581 31.3569 55.2947 31.6058C55.0084 31.8424 54.6474 32.0166 54.2117 32.1162L52.9669 32.4025L53.4897 34.6805L52.6432 34.8797L51.2739 28.8797L53.3154 28.4067C54.025 28.2449 54.5976 28.2822 55.0582 28.5063C55.5063 28.7303 55.805 29.1287 55.9295 29.6888ZM55.0831 29.9005C54.9088 29.1536 54.3362 28.8922 53.3652 29.1038L52.2698 29.3527L52.8175 31.7054L53.9503 31.444C54.386 31.3444 54.7096 31.1577 54.9212 30.8839C55.1204 30.6224 55.1702 30.2863 55.0831 29.9005ZM61.7802 33.7718L60.0499 31.1951L58.9669 31.22L59.0291 33.8465L58.1577 33.8714L58.0084 27.722L60.1992 27.6722C60.9088 27.6598 61.4565 27.7843 61.8299 28.0706C62.2034 28.3569 62.4026 28.7677 62.415 29.3154C62.4275 29.7635 62.2905 30.1494 62.0167 30.4731C61.7428 30.7967 61.3694 30.9959 60.8839 31.083L62.776 33.7594L61.7802 33.7718ZM61.5436 29.3403C61.5312 28.6681 61.0582 28.332 60.137 28.3569L58.8922 28.3942L58.942 30.5353L60.2117 30.498C60.6474 30.4855 60.9835 30.3859 61.2075 30.1868C61.444 29.9751 61.5561 29.7013 61.5436 29.3403ZM68.7511 31.9046C68.5146 32.9004 68.1536 33.6224 67.6308 34.0706C67.108 34.5187 66.4855 34.6556 65.7511 34.4938C65.0167 34.3195 64.5063 33.9336 64.2449 33.3112C63.9835 32.6888 63.9586 31.8797 64.1951 30.859C64.4192 29.8631 64.7926 29.1411 65.303 28.7179C65.8009 28.2822 66.4357 28.1577 67.1826 28.332C67.9171 28.5063 68.415 28.8922 68.6889 29.4897C68.9627 30.0747 68.9876 30.8839 68.7511 31.9046ZM67.8548 31.693C68.2158 30.1121 67.942 29.2158 67.0208 29.0042C66.0997 28.7926 65.4523 29.4772 65.0914 31.0581C64.9046 31.8548 64.8797 32.4897 65.0291 32.9502C65.166 33.4108 65.4648 33.6971 65.9129 33.7967C66.3984 33.9087 66.7967 33.7843 67.108 33.4233C67.4316 33.0623 67.6806 32.4772 67.8548 31.693Z" fill="white"/>
<path fill-rule="evenodd" clip-rule="evenodd" d="M89.3277 25.394L59.9874 50.6264L30.4729 26.4646L27.0995 51.2239L22.5186 84.4729L45.1119 58.8671L59.9874 84.4729L74.863 58.8671L97.4688 84.4729L92.4522 48.0496L90.3111 32.5144L89.3277 25.394Z" fill="white"/>
</g>
<defs>
<clipPath id="clip0_910_3836">
<rect width="120" height="120" fill="white"/>
</clipPath>
</defs>
</svg>
