<svg width="252" height="90" viewBox="0 0 252 90" fill="none" xmlns="http://www.w3.org/2000/svg">
<path d="M0.527466 11.9315L5.52747 7L10.5275 11.9315V38.0685L5.52747 43L0.527466 38.0685V11.9315Z" fill="#A24936"/>
<path opacity="0.2" d="M0.527466 78.0685L5.52747 83L10.5275 78.0685V51.9315L5.52747 47L0.527466 51.9315V78.0685Z" fill="#A24936"/>
<path d="M40.5275 11.9315L45.5275 7L50.5275 11.9315V38.0685L45.5275 43L40.5275 38.0685V11.9315Z" fill="#A24936"/>
<path d="M40.5275 78.0685L45.5275 83L50.5275 78.0685V51.9315L45.5275 47L40.5275 51.9315V78.0685Z" fill="#A24936"/>
<path opacity="0.2" d="M38.596 -2.15563e-07L43.5275 5L38.596 10L12.459 10L7.52747 5L12.459 -1.35805e-06L38.596 -2.15563e-07Z" fill="#A24936"/>
<path opacity="0.2" d="M38.596 90L43.5275 85L38.596 80L12.459 80L7.52747 85L12.459 90L38.596 90Z" fill="#A24936"/>
<path d="M38.596 40L43.5275 45L38.596 50L12.459 50L7.52747 45L12.459 40L38.596 40Z" fill="#A24936"/>
<path d="M201.473 11.9315L206.473 7L211.473 11.9315V38.0685L206.473 43L201.473 38.0685V11.9315Z" fill="#A24936"/>
<path opacity="0.2" d="M201.473 78.0685L206.473 83L211.473 78.0685V51.9315L206.473 47L201.473 51.9315V78.0685Z" fill="#A24936"/>
<path d="M241.473 11.9315L246.473 7L251.473 11.9315V38.0685L246.473 43L241.473 38.0685V11.9315Z" fill="#A24936"/>
<path d="M241.473 78.0685L246.473 83L251.473 78.0685V51.9315L246.473 47L241.473 51.9315V78.0685Z" fill="#A24936"/>
<path opacity="0.2" d="M239.541 -2.15563e-07L244.473 5L239.541 10L213.404 10L208.473 5L213.404 -1.35805e-06L239.541 -2.15563e-07Z" fill="#A24936"/>
<path opacity="0.2" d="M239.541 90L244.473 85L239.541 80L213.404 80L208.473 85L213.404 90L239.541 90Z" fill="#A24936"/>
<path d="M239.541 40L244.473 45L239.541 50L213.404 50L208.473 45L213.404 40L239.541 40Z" fill="#A24936"/>
<path d="M58.5275 11.9315L63.5275 7L68.5275 11.9315V38.0685L63.5275 43L58.5275 38.0685V11.9315Z" fill="#A24936"/>
<path d="M58.5275 78.0685L63.5275 83L68.5275 78.0685V51.9315L63.5275 47L58.5275 51.9315V78.0685Z" fill="#A24936"/>
<path d="M98.5275 11.9315L103.527 7L108.527 11.9315V38.0685L103.527 43L98.5275 38.0685V11.9315Z" fill="#A24936"/>
<path d="M98.5275 78.0685L103.527 83L108.527 78.0685V51.9315L103.527 47L98.5275 51.9315V78.0685Z" fill="#A24936"/>
<path d="M96.596 -2.15563e-07L101.527 5L96.596 10L70.459 10L65.5275 5L70.459 -1.35805e-06L96.596 -2.15563e-07Z" fill="#A24936"/>
<path d="M96.596 90L101.527 85L96.596 80L70.459 80L65.5275 85L70.459 90L96.596 90Z" fill="#A24936"/>
<path opacity="0.2" d="M96.596 40L101.527 45L96.596 50L70.459 50L65.5275 45L70.459 40L96.596 40Z" fill="#A24936"/>
<path opacity="0.2" d="M143.473 11.9315L148.473 7L153.473 11.9315V38.0685L148.473 43L143.473 38.0685V11.9315Z" fill="#A24936"/>
<path opacity="0.2" d="M143.473 78.0685L148.473 83L153.473 78.0685V51.9315L148.473 47L143.473 51.9315V78.0685Z" fill="#A24936"/>
<path opacity="0.2" d="M183.473 11.9315L188.473 7L193.473 11.9315V38.0685L188.473 43L183.473 38.0685V11.9315Z" fill="#A24936"/>
<path opacity="0.2" d="M183.473 78.0685L188.473 83L193.473 78.0685V51.9315L188.473 47L183.473 51.9315V78.0685Z" fill="#A24936"/>
<path opacity="0.2" d="M181.541 -2.15563e-07L186.473 5L181.541 10L155.404 10L150.473 5L155.404 -1.35805e-06L181.541 -2.15563e-07Z" fill="#A24936"/>
<path opacity="0.2" d="M181.541 90L186.473 85L181.541 80L155.404 80L150.473 85L155.404 90L181.541 90Z" fill="#A24936"/>
<path opacity="0.2" d="M181.541 40L186.473 45L181.541 50L155.404 50L150.473 45L155.404 40L181.541 40Z" fill="#A24936"/>
<rect x="124.527" y="31" width="10" height="10" fill="#A24936"/>
<rect x="124.527" y="49" width="10" height="10" fill="#A24936"/>
</svg>
