<svg width="335" height="335" viewBox="0 0 335 335" fill="none" xmlns="http://www.w3.org/2000/svg">
<mask id="mask0_1603_8503" style="mask-type:alpha" maskUnits="userSpaceOnUse" x="0" y="0" width="335" height="335">
<rect width="335" height="335" fill="#D9D9D9"/>
</mask>
<g mask="url(#mask0_1603_8503)">
<g opacity="0.5">
<path d="M67.2922 114.061V282.28H219.414V114.061M67.2922 114.061L56.0239 148.268L4.51172 132.573L12.394 106.817M67.2922 114.061V113.256C67.2922 71.8049 86.4318 39.2073 116.615 39.2073M12.394 106.817L23.9201 69.1543C29.7574 50.0804 43.3669 34.3519 61.4041 25.8343L105.524 5H181.182L225.302 25.8343C243.339 34.3519 256.949 50.0804 262.786 69.1543L274.312 106.817M12.394 106.817L49.5849 116.878M219.414 114.061L230.682 148.268L282.195 132.573L274.312 106.817M219.414 114.061V113.256C219.414 71.8049 200.275 39.2073 170.092 39.2073M274.312 106.817L237.121 116.878M186.012 7.28049C186.012 29.5066 166.913 48.4634 143.353 48.4634C119.794 48.4634 100.695 29.5066 100.695 7.28049M177.158 5C177.158 23.6699 162.023 38.8049 143.353 38.8049C124.683 38.8049 109.548 23.6699 109.548 5" stroke="white" stroke-width="2"/>
<path fill-rule="evenodd" clip-rule="evenodd" d="M179.663 79.8535L172.731 85.3537L165.758 80.0869L164.961 85.4839L163.879 92.7316L169.217 87.15L172.731 92.7316L176.246 87.15L181.586 92.7316L180.401 84.792L179.895 81.4056L179.663 79.8535Z" fill="white"/>
<circle cx="172.734" cy="86.2925" r="15.0976" stroke="white" stroke-width="2"/>
</g>
<path d="M318.823 208.365C318.822 172.716 322.063 131.667 269.267 131.667C268.541 131.667 268.377 131.67 268.455 131.676C267.4 131.7 266.379 131.771 265.392 131.892C255.73 132.285 243.107 133.193 236.898 134.603C218.879 138.696 210 147.025 206.221 159.321C201.759 173.84 200.215 212.037 200 229.321V242.284V301.178C200 311.439 206.524 320.565 216.233 323.886L225.176 326.945C231.085 328.966 237.304 329.927 243.548 329.784C245.448 329.784 258.528 324.71 274.439 318.227C291.579 311.242 312.005 302.622 325.281 296.945C326.854 296.153 330 293.315 330 288.303V223.056V217.895C330 216.138 329.077 214.509 327.57 213.606L318.823 208.365Z" fill="#00000E"/>
<path d="M318.823 208.365C318.822 172.716 322.063 131.667 269.267 131.667M318.823 208.365L327.57 213.606C329.077 214.509 330 216.138 330 217.895C330 219.526 330 221.253 330 223.056M318.823 208.365L271.55 209.665C262.888 209.903 255.99 216.994 255.99 225.659V226.945M269.267 131.667C245.237 131.667 238.374 154.871 238.374 241.636V244.877M269.267 131.667C266.753 131.667 270.981 131.703 268.647 131.775C258.773 132.08 243.833 133.028 236.898 134.603C218.879 138.696 210 147.025 206.221 159.321C201.759 173.84 200.215 212.037 200 229.321V242.284M243.548 329.784C237.97 329.784 238.454 324.023 238.374 321.142V244.877M243.548 329.784C245.448 329.784 258.528 324.71 274.439 318.227M243.548 329.784V329.784C237.304 329.927 231.085 328.966 225.176 326.945L216.233 323.886C206.524 320.565 200 311.439 200 301.178V242.284M274.439 318.227C291.579 311.242 312.005 302.622 325.281 296.945C326.854 296.153 330 293.315 330 288.303C330 283.833 330 246.843 330 223.056M274.439 318.227C259.508 318.227 255.99 314.013 255.99 309.044V226.945M330 223.056C315.633 224.68 289.859 227.15 272.294 227.618M255.99 226.945C259.028 227.659 264.942 227.813 272.294 227.618M272.294 227.618V303.642M238.374 244.877C226.226 244.085 201.545 242.976 200 242.284" stroke="#7F7F86" stroke-width="2"/>
<circle cx="68" cy="187" r="27" fill="#5C914F"/>
<path d="M68 179V195M60 187L76 187" stroke="white" stroke-width="2"/>
</g>
</svg>
