<svg width="100" height="100" fill="none" xmlns="http://www.w3.org/2000/svg"><path fill-rule="evenodd" clip-rule="evenodd" d="M90.173 50c0 22.183-17.983 40.167-40.166 40.167C27.823 90.167 9.84 72.183 9.84 50S27.823 9.833 50.006 9.833C72.19 9.833 90.174 27.817 90.174 50Z" fill="#fff"/><path d="M88.74 50c0 10.65-4.317 20.292-11.3 27.275-6.984 6.983-16.626 11.3-27.276 11.3-10.65 0-20.291-4.317-27.275-11.3C15.914 70.3 11.598 60.658 11.598 50c0-10.65 4.316-20.292 11.3-27.275 6.975-6.975 16.616-11.292 27.266-11.292 10.65 0 20.292 4.317 27.275 11.3C84.423 29.708 88.74 39.35 88.74 50ZM77.08 76.917c6.892-6.892 11.15-16.4 11.15-26.917 0-10.508-4.258-20.025-11.15-26.917-6.892-6.891-16.408-11.15-26.917-11.15-10.508 0-20.025 4.259-26.916 11.15-6.892 6.892-11.15 16.4-11.15 26.917 0 10.508 4.258 20.025 11.15 26.917 6.891 6.891 16.4 11.15 26.916 11.15 10.517 0 20.034-4.259 26.917-11.15Z" fill="#00000E"/><path fill-rule="evenodd" clip-rule="evenodd" d="M80.872 32.908a1.693 1.693 0 0 0-1.7-1.683 1.693 1.693 0 0 0-1.684 1.7 1.693 1.693 0 0 0 1.7 1.683c.934 0 1.684-.766 1.684-1.7Z" fill="#5C914F"/><path fill-rule="evenodd" clip-rule="evenodd" d="M85.174 50.325a1.687 1.687 0 0 0-.633-2.309 1.687 1.687 0 0 0-2.308.634 1.687 1.687 0 0 0 .633 2.308 1.687 1.687 0 0 0 2.308-.633Z" fill="#00000E"/><path fill-rule="evenodd" clip-rule="evenodd" d="M80.655 67.558a1.698 1.698 0 0 0 .609-2.316 1.698 1.698 0 0 0-2.317-.609 1.698 1.698 0 0 0-.608 2.317 1.684 1.684 0 0 0 2.316.608Z" fill="#A24936"/><path fill-rule="evenodd" clip-rule="evenodd" d="M19.465 32.908a1.693 1.693 0 0 1 1.7-1.683 1.693 1.693 0 0 1 1.683 1.7 1.693 1.693 0 0 1-1.7 1.683 1.693 1.693 0 0 1-1.683-1.7Z" fill="#5C914F"/><path fill-rule="evenodd" clip-rule="evenodd" d="M15.166 50.325a1.687 1.687 0 0 1 .633-2.309 1.687 1.687 0 0 1 2.309.634 1.687 1.687 0 0 1-.634 2.308 1.687 1.687 0 0 1-2.308-.633Z" fill="#00000E"/><path fill-rule="evenodd" clip-rule="evenodd" d="M19.681 67.558a1.698 1.698 0 0 1-.608-2.316 1.698 1.698 0 0 1 2.317-.609 1.698 1.698 0 0 1 .608 2.317 1.684 1.684 0 0 1-2.317.608Z" fill="#A24936"/><path d="M49.999 20.725a28.998 28.998 0 0 1 17.642 5.95l-1.442 1.241a27.116 27.116 0 0 0-16.192-5.333 27.15 27.15 0 0 0-16.65 5.675l-1.475-1.208A29.022 29.022 0 0 1 50 20.725Zm21.542 9.533a29.006 29.006 0 0 1 7.566 19.575c0 4.684-1.108 9.117-3.075 13.034l-.491-3.542a26.933 26.933 0 0 0 1.708-9.492A27.106 27.106 0 0 0 72.032 33.8l-.491-3.542Zm2.075 36.6a29.473 29.473 0 0 1-3.034 3.558C65.316 75.683 58.041 78.942 50 78.942c-8.042 0-15.317-3.259-20.583-8.525a29.482 29.482 0 0 1-3.034-3.559l1.267-1.433a26.577 26.577 0 0 0 3.083 3.675c4.934 4.933 11.75 7.983 19.267 7.983 7.525 0 14.333-3.05 19.267-7.983a27.598 27.598 0 0 0 3.083-3.675l1.267 1.433Zm-49.65-3.983a29.018 29.018 0 0 1-3.075-13.042 29.017 29.017 0 0 1 7.541-19.55l-.483 3.542a27.13 27.13 0 0 0-5.2 16.008c0 3.342.6 6.534 1.7 9.492l-.483 3.55ZM29.88 21.3l.816 1.15 1.567-1.117.258.367-1.566 1.117.891 1.25-.441.316-2.225-3.133 2.066-1.467.259.358L29.88 21.3Zm7.733-2.6c.267.583.35 1.083.267 1.5-.084.416-.342.725-.775.916-.434.192-.825.192-1.192-.016-.367-.209-.683-.609-.95-1.2-.267-.583-.35-1.075-.267-1.483.084-.409.35-.709.784-.909.425-.191.825-.191 1.183.009.367.191.683.591.95 1.183Zm-.525.233c-.417-.925-.892-1.258-1.425-1.017-.542.242-.6.825-.183 1.75.208.467.441.792.683.967.242.175.5.209.767.084a.702.702 0 0 0 .45-.642c.008-.308-.084-.683-.292-1.142Zm5.942-1.942c.175.617.191 1.125.041 1.526-.15.4-.45.666-.9.791-.458.125-.85.067-1.175-.192-.333-.258-.583-.7-.766-1.325-.175-.616-.192-1.116-.042-1.508.142-.392.45-.65.908-.783.45-.125.842-.067 1.175.183.334.25.584.692.759 1.308Zm-.55.159c-.275-.975-.7-1.375-1.259-1.217-.566.159-.716.725-.441 1.7.141.492.316.842.533 1.059.217.208.467.274.742.2a.714.714 0 0 0 .541-.567c.059-.3.025-.692-.116-1.175Zm5.008-2.2.258 3.383-.541.042-.259-3.383-1.258.091-.033-.441 3.05-.234.033.442-1.25.1Zm6.983 2.45a.934.934 0 0 1-.45.767c-.275.166-.641.233-1.1.2l-1.341-.1.291-3.825 1.167.091c.942.075 1.383.417 1.333 1.034a.85.85 0 0 1-.25.566.967.967 0 0 1-.575.259c.317.058.55.175.709.358a.79.79 0 0 1 .216.65Zm-.641-1.817c.016-.2-.042-.35-.184-.45-.133-.1-.35-.158-.633-.175l-.633-.05-.092 1.175.642.05c.566.05.866-.133.9-.55Zm.1 1.725a.553.553 0 0 0-.217-.508c-.158-.125-.408-.2-.742-.225l-.716-.058-.1 1.35.75.058c.333.025.575-.017.741-.117.175-.1.267-.267.284-.5Zm5.4 2.275-.084-1.15-1.541-.442-.667.934-.533-.15 2.441-3.3.592.167.325 4.083-.533-.142Zm-.209-3.625-.066.1-.35.525-.742 1.042 1.267.358-.084-1.508-.025-.517Zm3.159 4.667 1.583-3.5.492.225-1.4 3.091 1.741.784-.183.4-2.233-1Zm4.808 2.45 2.225-3.125.442.317-1.967 2.766 1.558 1.108-.258.359-2-1.425ZM35.547 82.525l.142-1.142-1.434-.725-.833.792-.5-.25 3.025-2.767.55.275-.459 4.067-.491-.25Zm.492-3.6-.084.083-.45.45-.925.883 1.175.592.2-1.492.084-.516Zm3.25 2.942c-.159.491-.2.883-.134 1.183.075.3.267.5.584.6.183.058.366.05.558-.025.192-.075.375-.225.567-.45l.375.317c-.484.583-1.034.774-1.634.575-.475-.159-.783-.434-.933-.842-.15-.408-.125-.917.075-1.533.408-1.242 1.092-1.709 2.058-1.392.608.2.934.642.967 1.317l-.508.024c0-.225-.05-.416-.159-.583a.755.755 0 0 0-.433-.333c-.308-.1-.575-.058-.8.125-.233.175-.425.517-.584 1.017Zm6.641 3.483-.258-1.125-1.592-.192-.517 1.025-.55-.067 1.9-3.633.617.075.95 3.983-.55-.066Zm-.767-3.542-.05.108-.266.576-.575 1.141 1.308.159-.316-1.475-.1-.509Zm6.476 1.9c-.017.625-.175 1.109-.484 1.433-.3.334-.725.484-1.267.467l-1.05-.033.117-3.834.884.025c.625.017 1.083.192 1.383.509.291.325.433.8.416 1.433Zm-.55-.016c.016-.5-.075-.867-.276-1.109-.2-.233-.525-.358-.983-.375l-.341-.008-.092 2.95.458.016c.4.009.7-.108.909-.35.2-.25.308-.624.325-1.124Zm3.141 1.683-.466-3.808 2.591-.317.05.442-2.058.25.142 1.191 1.883-.233.05.433-1.883.234.158 1.308 2.175-.267.05.442-2.692.325Zm7.417-1.609-.667-2.375c-.066-.25-.116-.433-.15-.55l-.066-.274c-.009.408-.026.7-.034.866l-.108 1.325-.375.109-.792-1.076a19.403 19.403 0 0 1-.483-.724l.242.825.666 2.374-.442.125-1.033-3.7.65-.183.883 1.2c.067.084.184.284.367.584v-.267l.017-.417.133-1.483.617-.175 1.033 3.7-.458.116Zm3.616-3.35.742 1.484-.475.241-.742-1.483-2.208-1.333.525-.258 1.733 1.083.167-2.034.525-.258-.267 2.558ZM47.28 29.708c.06.25.05.484-.024.709a1.29 1.29 0 0 1-.4.575 1.724 1.724 0 0 1-.725.341l-.834.192.35 1.525-.566.133-.917-4.016 1.367-.317c.475-.108.858-.083 1.166.067.3.15.5.416.584.791Zm-.566.142c-.117-.5-.5-.675-1.15-.533l-.733.166.366 1.575.759-.175c.291-.066.508-.191.65-.375.133-.175.166-.4.108-.658Zm4.483 2.592-1.158-1.725-.725.016.042 1.759-.584.016-.1-4.116 1.467-.034c.475-.008.842.075 1.092.267.25.192.383.467.391.833.009.3-.083.559-.266.775-.184.217-.434.35-.759.409l1.267 1.791-.667.009Zm-.158-2.967c-.008-.45-.325-.675-.942-.658l-.833.025.033 1.433.85-.025c.292-.008.517-.075.667-.208.158-.142.233-.325.225-.567Zm4.825 1.717c-.158.666-.4 1.15-.75 1.45-.35.3-.767.391-1.258.283-.492-.117-.834-.375-1.009-.792-.175-.416-.191-.958-.033-1.641.15-.667.4-1.15.742-1.434.333-.291.758-.375 1.258-.258.492.117.825.375 1.008.775.184.392.2.933.042 1.617Zm-.6-.142c.242-1.058.058-1.658-.558-1.8-.617-.142-1.05.317-1.292 1.375-.125.533-.142.958-.042 1.267.092.308.292.5.592.566.325.075.592-.008.8-.25.217-.241.383-.633.5-1.158Z" fill="#00000E"/><path fill-rule="evenodd" clip-rule="evenodd" d="M69.64 26.833 49.996 43.725 30.24 27.55l-2.258 16.575-3.067 22.258L40.04 49.242l9.958 17.141 9.959-17.141 15.133 17.141L71.731 42l-1.434-10.4-.658-4.767Z" fill="#00000E"/></svg>