<svg width="1920" height="980" fill="none" xmlns="http://www.w3.org/2000/svg"><g clip-path="url(#a)"><path fill="#5C914F" d="M0 0h1920v980H0z"/><g opacity=".2"><path opacity=".5" fill-rule="evenodd" clip-rule="evenodd" d="M962-270h-3v556.787c-106.131.538-192 86.74-192 192.997 0 106.258 85.869 192.459 192 192.998V1249h3V672.774c105.67-1.073 191-87.066 191-192.99 0-105.923-85.33-191.917-191-192.99V-270Zm-3 559.787c-104.474.538-189 85.397-189 189.997 0 104.601 84.526 189.459 189 189.998V289.787Zm3 379.987v-379.98c104.01 1.073 188 85.724 188 189.99 0 104.267-83.99 188.917-188 189.99Z" fill="#fff"/><g opacity=".5"><mask id="b" fill="#fff"><path d="M0 237.504h174v480H0v-480Z"/></mask><path d="M174 237.504h3v-3h-3v3Zm0 480v3h3v-3h-3Zm-174-477h174v-6H0v6Zm171-3v480h6v-480h-6Zm3 477H0v6h174v-6Z" fill="#fff" mask="url(#b)"/><mask id="c" fill="#fff"><path d="M0 382.504h70v192H0v-192Z"/></mask><path d="M70 382.504h3v-3h-3v3Zm0 192v3h3v-3h-3Zm-70-189h70v-6H0v6Zm67-3v192h6v-192h-6Zm3 189H0v6h70v-6Z" fill="#fff" mask="url(#c)"/><path d="M172 403.504s32 22.424 32 74-32 74-32 74" stroke="#fff" stroke-width="3"/></g><g opacity=".5"><mask id="d" fill="#fff"><path d="M1920 237.504h-174v480h174v-480Z"/></mask><path d="M1746 237.504h-3v-3h3v3Zm0 480v3h-3v-3h3Zm174-477h-174v-6h174v6Zm-171-3v480h-6v-480h6Zm-3 477h174v6h-174v-6Z" fill="#fff" mask="url(#d)"/><mask id="e" fill="#fff"><path d="M1920 382.504h-70v192h70v-192Z"/></mask><path d="M1850 382.504h-3v-3h3v3Zm0 192v3h-3v-3h3Zm70-189h-70v-6h70v6Zm-67-3v192h-6v-192h6Zm-3 189h70v6h-70v-6Z" fill="#fff" mask="url(#e)"/><path d="M1748 403.504s-32 22.424-32 74 32 74 32 74" stroke="#fff" stroke-width="3"/></g></g></g><defs><clipPath id="a"><path fill="#fff" d="M0 0h1920v980H0z"/></clipPath></defs></svg>