<svg width="1280" height="799" fill="none" xmlns="http://www.w3.org/2000/svg"><g clip-path="url(#a)"><path fill="#5C914F" d="M0 0h1280v799H0z"/><g opacity=".4"><path opacity=".5" fill-rule="evenodd" clip-rule="evenodd" d="M641.334-107h-2v371.191c-70.754.359-128 57.827-128 128.665s57.246 128.306 128 128.665v384.146h2V521.516c70.446-.715 127.333-58.044 127.333-128.66s-56.887-127.945-127.333-128.66V-107Zm-2 374.191c-69.097.359-125 56.484-125 125.665 0 69.182 55.903 125.306 125 125.665v-251.33Zm2 251.325v-251.32c68.79.715 124.333 56.701 124.333 125.66s-55.543 124.945-124.333 125.66Z" fill="#fff"/><g opacity=".5"><mask id="b" fill="#fff"><path d="M0 231.336h116v320H0v-320Z"/></mask><path d="M116 231.336h3v-3h-3v3Zm0 320v3h3v-3h-3Zm-116-317h116v-6H0v6Zm113-3v320h6v-320h-6Zm3 317H0v6h116v-6Z" fill="#fff" mask="url(#b)"/><mask id="c" fill="#fff"><path d="M0 328.003h46.667v128H0v-128Z"/></mask><path d="M46.667 328.003h3v-3h-3v3Zm0 128v3h3v-3h-3ZM0 331.003h46.667v-6H0v6Zm43.667-3v128h6v-128h-6Zm3 125H0v6h46.667v-6Z" fill="#fff" mask="url(#c)"/><path d="M114.666 342.003s21.333 14.949 21.333 49.333-21.333 49.333-21.333 49.333" stroke="#fff" stroke-width="3"/></g><g opacity=".5"><mask id="d" fill="#fff"><path d="M1280 231.336h-116v320h116v-320Z"/></mask><path d="M1164 231.336h-3v-3h3v3Zm0 320v3h-3v-3h3Zm116-317h-116v-6h116v6Zm-113-3v320h-6v-320h6Zm-3 317h116v6h-116v-6Z" fill="#fff" mask="url(#d)"/><mask id="e" fill="#fff"><path d="M1280 328.003h-46.67v128H1280v-128Z"/></mask><path d="M1233.33 328.003h-3v-3h3v3Zm0 128v3h-3v-3h3Zm46.67-125h-46.67v-6H1280v6Zm-43.67-3v128h-6v-128h6Zm-3 125H1280v6h-46.67v-6Z" fill="#fff" mask="url(#e)"/><path d="M1165.33 342.003S1144 356.952 1144 391.336s21.33 49.333 21.33 49.333" stroke="#fff" stroke-width="3"/></g></g></g><defs><clipPath id="a"><path fill="#fff" d="M0 0h1280v799H0z"/></clipPath></defs></svg>