<svg width="360" height="580" fill="none" xmlns="http://www.w3.org/2000/svg"><g clip-path="url(#a)"><path fill="#5C914F" d="M0 0h360v580H0z"/><g opacity=".4"><path opacity=".5" fill="#fff" d="M0 291.226h360v-1.452H0z"/><circle cx="180.5" cy="290.5" r="50.75" stroke="#fff" stroke-opacity=".5" stroke-width="1.5"/><g opacity=".5"><mask id="b" fill="#fff"><path d="M83 580v-69.941h194V580H83Z"/></mask><path d="M83 510.059v-2h-2v2h2Zm194 0h2v-2h-2v2ZM85 580v-69.941h-4V580h4Zm-2-67.941h194v-4H83v4Zm192-2V580h4v-69.941h-4Z" fill="#fff" mask="url(#b)"/><mask id="c" fill="#fff"><path d="M141.604 580v-28.137h77.6V580h-77.6Z"/></mask><path d="M141.604 551.863v-2h-2v2h2Zm77.6 0h2v-2h-2v2ZM143.604 580v-28.137h-4V580h4Zm-2-26.137h77.6v-4h-77.6v4Zm75.6-2V580h4v-28.137h-4Z" fill="#fff" mask="url(#c)"/><g filter="url(#d)"><path d="M150.092 510.863S159.155 498 180 498s29.908 12.863 29.908 12.863" stroke="#fff" stroke-width="2"/></g></g><g opacity=".5"><mask id="e" fill="#fff"><path d="M83 0v69.941h194V0H83Z"/></mask><path d="M83 69.941v2h-2v-2h2Zm194 0h2v2h-2v-2ZM85 0v69.941h-4V0h4Zm-2 67.941h194v4H83v-4Zm192 2V0h4v69.941h-4Z" fill="#fff" mask="url(#e)"/><mask id="f" fill="#fff"><path d="M141.604 0v28.137h77.6V0h-77.6Z"/></mask><path d="M141.604 28.137v2h-2v-2h2Zm77.6 0h2v2h-2v-2ZM143.604 0v28.137h-4V0h4Zm-2 26.137h77.6v4h-77.6v-4Zm75.6 2V0h4v28.137h-4Z" fill="#fff" mask="url(#f)"/><path d="M150.092 69.137S159.155 82 180 82s29.908-12.863 29.908-12.863" stroke="#fff" stroke-width="2"/></g></g></g><defs><clipPath id="a"><path fill="#fff" d="M0 0h360v580H0z"/></clipPath><filter id="d" x="145.275" y="497" width="69.449" height="22.44" filterUnits="userSpaceOnUse" color-interpolation-filters="sRGB"><feFlood flood-opacity="0" result="BackgroundImageFix"/><feColorMatrix in="SourceAlpha" values="0 0 0 0 0 0 0 0 0 0 0 0 0 0 0 0 0 0 127 0" result="hardAlpha"/><feOffset dy="4"/><feGaussianBlur stdDeviation="2"/><feComposite in2="hardAlpha" operator="out"/><feColorMatrix values="0 0 0 0 0 0 0 0 0 0 0 0 0 0 0 0 0 0 0.25 0"/><feBlend in2="BackgroundImageFix" result="effect1_dropShadow_1516_8277"/><feBlend in="SourceGraphic" in2="effect1_dropShadow_1516_8277" result="shape"/></filter></defs></svg>