<svg width="206" height="481" viewBox="0 0 206 481" fill="none" xmlns="http://www.w3.org/2000/svg">
<mask id="path-1-inside-1_208_440" fill="white">
<path d="M0 0.503662H174V480.504H0V0.503662Z"/>
</mask>
<path d="M174 0.503662H177V-2.49634H174V0.503662ZM174 480.504V483.504H177V480.504H174ZM0 3.50366H174V-2.49634H0V3.50366ZM171 0.503662V480.504H177V0.503662H171ZM174 477.504H0V483.504H174V477.504Z" fill="white" mask="url(#path-1-inside-1_208_440)"/>
<mask id="path-3-inside-2_208_440" fill="white">
<path d="M0 145.504H70V337.504H0V145.504Z"/>
</mask>
<path d="M70 145.504H73V142.504H70V145.504ZM70 337.504V340.504H73V337.504H70ZM0 148.504H70V142.504H0V148.504ZM67 145.504V337.504H73V145.504H67ZM70 334.504H0V340.504H70V334.504Z" fill="white" mask="url(#path-3-inside-2_208_440)"/>
<path d="M172 166.504C172 166.504 204 188.928 204 240.504C204 292.079 172 314.504 172 314.504" stroke="white" stroke-width="3"/>
</svg>
