<svg width="581" height="400" fill="none" xmlns="http://www.w3.org/2000/svg"><g opacity=".4"><mask id="a" fill="#fff"><path d="M431 0v100.647H151V0h280Z"/></mask><path d="M431 100.647v1h1v-1h-1Zm-280 0h-1v1h1v-1ZM430 0v100.647h2V0h-2Zm1 99.647H151v2h280v-2Zm-279 1V0h-2v100.647h2Z" fill="#fff" mask="url(#a)"/><mask id="b" fill="#fff"><path d="M346 1v39H234V1h112Z"/></mask><path d="M346 40v1h1v-1h-1Zm-112 0h-1v1h1v-1ZM345 1v39h2V1h-2Zm1 38H234v2h112v-2Zm-111 1V1h-2v39h2Z" fill="#fff" mask="url(#b)"/><path d="M334 100s-13.03 18-43 18-43-18-43-18" stroke="#fff"/></g><path stroke="#fff" stroke-opacity=".4" d="M.5.5h580v399H.5z"/></svg>