<svg width="36" height="36" fill="none" xmlns="http://www.w3.org/2000/svg"><mask id="a" style="mask-type:alpha" maskUnits="userSpaceOnUse" x="0" y="0" width="36" height="36"><path fill="#D9D9D9" d="M0 0h36v36H0z"/></mask><path d="M13.8 8h8.4c3.2 0 5.8 2.6 5.8 5.8v8.4a5.8 5.8 0 0 1-5.8 5.8h-8.4C10.6 28 8 25.4 8 22.2v-8.4A5.8 5.8 0 0 1 13.8 8m-.2 2a3.6 3.6 0 0 0-3.6 3.6v8.8c0 1.99 1.61 3.6 3.6 3.6h8.8a3.6 3.6 0 0 0 3.6-3.6v-8.8c0-1.99-1.61-3.6-3.6-3.6h-8.8Zm9.65 1.5a1.25 1.25 0 1 1 0 2.5 1.25 1.25 0 0 1 0-2.5ZM18 13a5 5 0 1 1 0 10 5 5 0 0 1 0-10m0 2a3 3 0 1 0 0 6 3 3 0 0 0 0-6Z" fill="#fff"/></svg>