<svg width="36" height="36" fill="none" xmlns="http://www.w3.org/2000/svg"><path d="M28.4 12.376a8.56 8.56 0 0 1-2.446.682 4.252 4.252 0 0 0 1.87-2.352c-.826.494-1.74.84-2.705 1.038-.785-.85-1.89-1.344-3.142-1.344a4.247 4.247 0 0 0-4.136 5.208 12.149 12.149 0 0 1-8.79-4.427 4.175 4.175 0 0 0-.576 2.124c0 1.473.746 2.777 1.9 3.518a4.238 4.238 0 0 1-1.94-.494v.03a4.25 4.25 0 0 0 3.42 4.16 4.22 4.22 0 0 1-1.918.07 4.23 4.23 0 0 0 1.512 2.107 4.273 4.273 0 0 0 2.465.838 8.505 8.505 0 0 1-5.3 1.818c-.338 0-.676-.02-1.014-.06a12.128 12.128 0 0 0 6.542 1.908c7.835 0 12.14-6.463 12.14-12.066 0-.188 0-.366-.01-.554a8.494 8.494 0 0 0 2.128-2.204Z" fill="#fff"/></svg>