<svg width="36" height="36" fill="none" xmlns="http://www.w3.org/2000/svg"><path d="M10.015 17.363s7.324-3.085 9.864-4.171c.974-.435 4.276-1.825 4.276-1.825s1.524-.609 1.397.869c-.042.608-.38 2.737-.72 5.04-.507 3.258-1.058 6.821-1.058 6.821s-.084 1-.804 1.173c-.72.174-1.905-.608-2.117-.782-.17-.13-3.175-2.085-4.276-3.041-.296-.261-.635-.782.043-1.39a163.803 163.803 0 0 0 4.445-4.345c.508-.522 1.016-1.738-1.1-.261a360.908 360.908 0 0 1-5.97 4.127s-.678.435-1.948.044-2.751-.913-2.751-.913-1.016-.651.72-1.346Z" fill="#fff"/></svg>