<svg width="36" height="36" fill="none" xmlns="http://www.w3.org/2000/svg"><path d="m9 26.333 1.291-4.802A8.88 8.88 0 0 1 12.69 10.13a8.918 8.918 0 0 1 11.646.753A8.887 8.887 0 0 1 20.02 25.89a8.921 8.921 0 0 1-6.17-.851L9 26.333Zm5.085-3.09.3.177a7.21 7.21 0 0 0 8.72-1.06 7.184 7.184 0 0 0 1.203-8.686 7.196 7.196 0 0 0-3.475-3.069 7.211 7.211 0 0 0-8.489 2.255 7.18 7.18 0 0 0-1.488 4.387 7.099 7.099 0 0 0 1.052 3.726l.189.31-.723 2.68 2.71-.72Z" fill="#fff"/><path fill-rule="evenodd" clip-rule="evenodd" d="M21.365 18.48a1.486 1.486 0 0 0-1.27-.289c-.331.137-.545.655-.758.914a.315.315 0 0 1-.407.091 5.758 5.758 0 0 1-2.878-2.462.344.344 0 0 1 .046-.477 1.99 1.99 0 0 0 .508-.847 1.845 1.845 0 0 0-.234-1.016 2.375 2.375 0 0 0-.737-1.111 1.018 1.018 0 0 0-1.093.167 2.245 2.245 0 0 0-.778 1.777c0 .188.025.376.071.558.118.439.3.858.54 1.244.172.296.36.582.564.858a8.664 8.664 0 0 0 2.445 2.264c.48.3.99.543 1.526.726a3.382 3.382 0 0 0 1.774.279 2.133 2.133 0 0 0 1.607-1.193c.087-.19.114-.403.076-.61-.091-.42-.656-.67-1.002-.872Z" fill="#fff"/></svg>