<svg width="335" height="335" fill="none" xmlns="http://www.w3.org/2000/svg"><mask id="a" style="mask-type:alpha" maskUnits="userSpaceOnUse" x="0" y="0" width="335" height="335"><path fill="#D9D9D9" d="M0 0h335v335H0z"/></mask><g mask="url(#a)"><g opacity=".5"><path d="M67.292 114.061V282.28h152.122V114.061m-152.122 0-11.268 34.207-51.512-15.695 7.882-25.756m54.898 7.244v-.805c0-41.451 19.14-74.049 49.323-74.049m-104.221 67.61L23.92 69.154a70.83 70.83 0 0 1 37.484-43.32L105.524 5h75.658l44.12 20.834a70.83 70.83 0 0 1 37.484 43.32l11.526 37.663m-261.918 0 37.19 10.061m169.83-2.817 11.268 34.207 51.513-15.695-7.883-25.756m-54.898 7.244v-.805c0-41.451-19.139-74.049-49.322-74.049m104.22 67.61-37.191 10.061M186.012 7.28c0 22.227-19.099 41.183-42.659 41.183-23.559 0-42.658-18.956-42.658-41.183M177.158 5c0 18.67-15.135 33.805-33.805 33.805S109.548 23.67 109.548 5" stroke="#fff" stroke-width="2"/><path fill-rule="evenodd" clip-rule="evenodd" d="m179.663 79.853-6.932 5.5-6.973-5.266-.797 5.397-1.082 7.248 5.338-5.582 3.514 5.582 3.515-5.582 5.34 5.582-1.185-7.94-.506-3.386-.232-1.553Z" fill="#fff"/><circle cx="172.734" cy="86.293" r="15.098" stroke="#fff" stroke-width="2"/></g><path d="M318.823 208.365c-.001-35.649 3.24-76.698-49.556-76.698-.726 0-.89.003-.812.009a30.963 30.963 0 0 0-3.063.216c-9.662.393-22.285 1.301-28.494 2.711-18.019 4.093-26.898 12.422-30.677 24.718-4.462 14.519-6.006 52.716-6.221 70v71.857a24 24 0 0 0 16.233 22.708l8.943 3.059a53.017 53.017 0 0 0 18.372 2.839c1.9 0 14.98-5.074 30.891-11.557 17.14-6.985 37.566-15.605 50.842-21.282 1.573-.792 4.719-3.63 4.719-8.642v-70.408a5.001 5.001 0 0 0-2.43-4.289l-8.747-5.241Z" fill="#00000E"/><path d="M318.823 208.365c-.001-35.649 3.24-76.698-49.556-76.698m49.556 76.698 8.747 5.241a5.001 5.001 0 0 1 2.43 4.289v5.161m-11.177-14.691-47.273 1.3c-8.662.238-15.56 7.329-15.56 15.994v1.286m13.277-95.278c-24.03 0-30.893 23.204-30.893 109.969v3.241m30.893-113.21c-2.514 0 1.714.036-.62.108-9.874.305-24.814 1.253-31.749 2.828-18.019 4.093-26.898 12.422-30.677 24.718-4.462 14.519-6.006 52.716-6.221 70v12.963m43.548 87.5c-5.578 0-5.094-5.761-5.174-8.642v-76.265m5.174 84.907c1.9 0 14.98-5.074 30.891-11.557m-30.891 11.557a53.017 53.017 0 0 1-18.372-2.839l-8.943-3.059A24 24 0 0 1 200 301.178v-58.894m74.439 75.943c17.14-6.985 37.566-15.605 50.842-21.282 1.573-.792 4.719-3.63 4.719-8.642v-65.247m-55.561 95.171c-14.931 0-18.449-4.214-18.449-9.183v-82.099m74.01-3.889c-14.367 1.624-40.141 4.094-57.706 4.562m-16.304-.673c3.038.714 8.952.868 16.304.673m0 0v76.024m-33.92-58.765c-12.148-.792-36.829-1.901-38.374-2.593" stroke="#7F7F86" stroke-width="2"/><circle cx="68" cy="187" r="27" fill="#5C914F"/><path d="M68 179v16m-8-8h16" stroke="#fff" stroke-width="2"/></g></svg>