<svg width="1920" height="980" viewBox="0 0 1920 980" fill="none" xmlns="http://www.w3.org/2000/svg">
<g clip-path="url(#clip0_920_3929)">
<rect width="1920" height="980" fill="#5C914F"/>
<g opacity="0.2">
<path opacity="0.5" fill-rule="evenodd" clip-rule="evenodd" d="M962 -270H959V286.787C852.869 287.325 767 373.527 767 479.784C767 586.042 852.869 672.243 959 672.782V1249H962V672.774C1067.67 671.701 1153 585.708 1153 479.784C1153 373.861 1067.67 287.867 962 286.794V-270ZM959 289.787C854.526 290.325 770 375.184 770 479.784C770 584.385 854.526 669.243 959 669.782V289.787ZM962 669.774V289.794C1066.01 290.867 1150 375.518 1150 479.784C1150 584.051 1066.01 668.701 962 669.774Z" fill="white"/>
<g opacity="0.5">
<mask id="path-2-inside-1_920_3929" fill="white">
<path d="M0 237.504H174V717.504H0V237.504Z"/>
</mask>
<path d="M174 237.504H177V234.504H174V237.504ZM174 717.504V720.504H177V717.504H174ZM0 240.504H174V234.504H0V240.504ZM171 237.504V717.504H177V237.504H171ZM174 714.504H0V720.504H174V714.504Z" fill="white" mask="url(#path-2-inside-1_920_3929)"/>
<mask id="path-4-inside-2_920_3929" fill="white">
<path d="M0 382.504H70V574.504H0V382.504Z"/>
</mask>
<path d="M70 382.504H73V379.504H70V382.504ZM70 574.504V577.504H73V574.504H70ZM0 385.504H70V379.504H0V385.504ZM67 382.504V574.504H73V382.504H67ZM70 571.504H0V577.504H70V571.504Z" fill="white" mask="url(#path-4-inside-2_920_3929)"/>
<path d="M172 403.504C172 403.504 204 425.928 204 477.504C204 529.08 172 551.504 172 551.504" stroke="white" stroke-width="3"/>
</g>
<g opacity="0.5">
<mask id="path-7-inside-3_920_3929" fill="white">
<path d="M1920 237.504H1746V717.504H1920V237.504Z"/>
</mask>
<path d="M1746 237.504H1743V234.504H1746V237.504ZM1746 717.504V720.504H1743V717.504H1746ZM1920 240.504H1746V234.504H1920V240.504ZM1749 237.504V717.504H1743V237.504H1749ZM1746 714.504H1920V720.504H1746V714.504Z" fill="white" mask="url(#path-7-inside-3_920_3929)"/>
<mask id="path-9-inside-4_920_3929" fill="white">
<path d="M1920 382.504H1850V574.504H1920V382.504Z"/>
</mask>
<path d="M1850 382.504H1847V379.504H1850V382.504ZM1850 574.504V577.504H1847V574.504H1850ZM1920 385.504H1850V379.504H1920V385.504ZM1853 382.504V574.504H1847V382.504H1853ZM1850 571.504H1920V577.504H1850V571.504Z" fill="white" mask="url(#path-9-inside-4_920_3929)"/>
<path d="M1748 403.504C1748 403.504 1716 425.928 1716 477.504C1716 529.08 1748 551.504 1748 551.504" stroke="white" stroke-width="3"/>
</g>
</g>
</g>
<defs>
<clipPath id="clip0_920_3929">
<rect width="1920" height="980" fill="white"/>
</clipPath>
</defs>
</svg>
