<svg width="48" height="48" fill="none" xmlns="http://www.w3.org/2000/svg"><g clip-path="url(#a)" fill="#fff"><path d="M28.539 12c-1.1 1.9-.44 4.36 1.46 5.46 1.9 1.1 4.36.44 5.46-1.46 1.1-1.9.44-4.36-1.46-5.46-1.9-1.1-4.36-.44-5.46 1.46Z"/><path d="m31.68 20.82-5.2-3c-4.76-2.76-6.4-8.88-3.64-13.64l-3.46-2C16.2 7.66 17.2 14.42 21.32 18.8l-10.3 17.84 3.46 2 3-5.2 3.46 2-6 10.4 3.46 2 12.58-21.78c2.28 3.1 2.66 7.38.62 10.92l3.46 2c3.2-5.5 2.56-13.16-3.38-18.16Z"/><path d="M25.5 7.6c1.44.82 3.26.34 4.1-1.1.82-1.44.34-3.26-1.1-4.1a3.007 3.007 0 0 0-4.1 1.1c-.82 1.44-.34 3.28 1.1 4.1Z"/></g><defs><clipPath id="a"><path fill="#fff" d="M0 0h48v48H0z"/></clipPath></defs></svg>