<svg width="48" height="48" fill="none" xmlns="http://www.w3.org/2000/svg"><g clip-path="url(#a)"><path d="M24 4C12.96 4 4 12.96 4 24s8.96 20 20 20 20-8.96 20-20S35.04 4 24 4Zm2 6.6 2.7-1.9a16.02 16.02 0 0 1 8.76 6.68l-.78 2.68-2.7.92L26 13.4v-2.8Zm-6.7-1.9 2.7 1.9v2.8l-7.98 5.58-2.7-.92-.78-2.68c2.02-3.14 5.12-5.54 8.76-6.68Zm-5.14 25.52-2.28.2C9.46 31.62 8 27.98 8 24c0-.24.02-.46.04-.7l2-1.46 2.76.96 2.92 8.68-1.56 2.74ZM29 39.18c-1.58.52-3.26.82-5 .82-1.74 0-3.42-.3-5-.82l-1.38-2.98L18.9 34h10.22l1.28 2.22-1.4 2.96ZM28.54 30h-9.08l-2.7-8.04L24 16.88l7.26 5.08L28.54 30Zm7.58 4.42-2.28-.2-1.58-2.74 2.92-8.68 2.78-.94 2 1.46c.02.22.04.44.04.68 0 3.98-1.46 7.62-3.88 10.42Z" fill="#fff"/></g><defs><clipPath id="a"><path fill="#fff" d="M0 0h48v48H0z"/></clipPath></defs></svg>