<svg width="48" height="48" fill="none" xmlns="http://www.w3.org/2000/svg"><g clip-path="url(#a)" fill="#fff"><path d="M24 16a4 4 0 1 0 0-8 4 4 0 0 0 0 8ZM42 32v-4c-4.48 0-8.32-1.92-11.2-5.36l-2.68-3.2A3.96 3.96 0 0 0 25.06 18h-2.1c-1.18 0-2.3.52-3.06 1.44l-2.68 3.2C14.32 26.08 10.48 28 6 28v4c5.54 0 10.38-2.34 14-6.5V30l-7.76 3.1A3.594 3.594 0 0 0 10 36.42C10 38.4 11.6 40 13.58 40H18v-1c0-2.76 2.24-5 5-5h6c.56 0 1 .44 1 1s-.44 1-1 1h-6c-1.66 0-3 1.34-3 3v1h14.42C36.4 40 38 38.4 38 36.42c0-1.46-.9-2.78-2.24-3.32L28 30v-4.5c3.62 4.16 8.46 6.5 14 6.5Z"/></g><defs><clipPath id="a"><path fill="#fff" d="M0 0h48v48H0z"/></clipPath></defs></svg>