<svg width="206" height="480" fill="none" xmlns="http://www.w3.org/2000/svg"><mask id="a" fill="#fff"><path d="M206 0H32v480h174V0Z"/></mask><path d="M32 0h-3v-3h3v3Zm0 480v3h-3v-3h3ZM206 3H32v-6h174v6ZM35 0v480h-6V0h6Zm-3 477h174v6H32v-6Z" fill="#fff" mask="url(#a)"/><mask id="b" fill="#fff"><path d="M206 145h-70v192h70V145Z"/></mask><path d="M136 145h-3v-3h3v3Zm0 192v3h-3v-3h3Zm70-189h-70v-6h70v6Zm-67-3v192h-6V145h6Zm-3 189h70v6h-70v-6Z" fill="#fff" mask="url(#b)"/><path d="M34 166S2 188.424 2 240s32 74 32 74" stroke="#fff" stroke-width="3"/></svg>