<svg width="48" height="48" viewBox="0 0 48 48" fill="none" xmlns="http://www.w3.org/2000/svg">
<g clip-path="url(#clip0_1021_5311)">
<path d="M28.5386 12C27.4386 13.9 28.0986 16.36 29.9986 17.46C31.8986 18.56 34.3586 17.9 35.4586 16C36.5586 14.1 35.8986 11.64 33.9986 10.54C32.0986 9.44003 29.6386 10.1 28.5386 12Z" fill="white"/>
<path d="M31.6795 20.8199C31.6795 20.8199 28.4195 18.9399 26.4795 17.8199C21.7195 15.0599 20.0795 8.93993 22.8395 4.17993L19.3795 2.17993C16.1995 7.65993 17.1995 14.4199 21.3195 18.7999L11.0195 36.6399L14.4795 38.6399L17.4795 33.4399L20.9395 35.4399L14.9395 45.8399L18.3995 47.8399L30.9795 26.0599C33.2595 29.1599 33.6395 33.4399 31.5995 36.9799L35.0595 38.9799C38.2595 33.4799 37.6195 25.8199 31.6795 20.8199Z" fill="white"/>
<path d="M25.4993 7.60004C26.9393 8.42004 28.7593 7.94004 29.5993 6.50004C30.4193 5.06004 29.9393 3.24004 28.4993 2.40004C27.0593 1.58004 25.2393 2.06004 24.3993 3.50004C23.5793 4.94004 24.0593 6.78004 25.4993 7.60004Z" fill="white"/>
</g>
<defs>
<clipPath id="clip0_1021_5311">
<rect width="48" height="48" fill="white"/>
</clipPath>
</defs>
</svg>
