<svg width="581" height="400" viewBox="0 0 581 400" fill="none" xmlns="http://www.w3.org/2000/svg">
<g opacity="0.4">
<mask id="path-3-inside-1_1402_8260" fill="white">
<path d="M431 0L431 100.647L151 100.647L151 -1.22392e-05L431 0Z"/>
</mask>
<path d="M431 100.647L431 101.647L432 101.647L432 100.647L431 100.647ZM151 100.647L150 100.647L150 101.647L151 101.647L151 100.647ZM430 -4.37114e-08L430 100.647L432 100.647L432 4.37114e-08L430 -4.37114e-08ZM431 99.647L151 99.647L151 101.647L431 101.647L431 99.647ZM152 100.647L152 -1.21955e-05L150 -1.22829e-05L150 100.647L152 100.647Z" fill="white" mask="url(#path-3-inside-1_1402_8260)"/>
<mask id="path-5-inside-2_1402_8260" fill="white">
<path d="M346 1L346 40L234 40L234 0.999995L346 1Z"/>
</mask>
<path d="M346 40L346 41L347 41L347 40L346 40ZM234 40L233 40L233 41L234 41L234 40ZM345 1L345 40L347 40L347 1L345 1ZM346 39L234 39L234 41L346 41L346 39ZM235 40L235 0.999995L233 0.999995L233 40L235 40Z" fill="white" mask="url(#path-5-inside-2_1402_8260)"/>
<path d="M334 100C334 100 320.97 118 291 118C261.03 118 248 100 248 100" stroke="white"/>
</g>
<rect x="0.5" y="0.5" width="580" height="399" stroke="white" stroke-opacity="0.4"/>
</svg>
