<svg width="368" height="320" viewBox="0 0 368 320" fill="none" xmlns="http://www.w3.org/2000/svg">
<g opacity="0.4">
<mask id="path-3-inside-1_1402_8279" fill="white">
<path d="M324 0L324 100.647L43.9998 100.647L43.9998 -1.22392e-05L324 0Z"/>
</mask>
<path d="M324 100.647L324 101.647L325 101.647L325 100.647L324 100.647ZM43.9998 100.647L42.9998 100.647L42.9998 101.647L43.9998 101.647L43.9998 100.647ZM323 -4.37114e-08L323 100.647L325 100.647L325 4.37114e-08L323 -4.37114e-08ZM324 99.647L43.9998 99.647L43.9998 101.647L324 101.647L324 99.647ZM44.9998 100.647L44.9998 -1.21955e-05L42.9998 -1.22829e-05L42.9998 100.647L44.9998 100.647Z" fill="white" mask="url(#path-3-inside-1_1402_8279)"/>
<mask id="path-5-inside-2_1402_8279" fill="white">
<path d="M239 1L239 40L127 40L127 0.999995L239 1Z"/>
</mask>
<path d="M239 40L239 41L240 41L240 40L239 40ZM127 40L126 40L126 41L127 41L127 40ZM238 1L238 40L240 40L240 1L238 1ZM239 39L127 39L127 41L239 41L239 39ZM128 40L128 0.999995L126 0.999995L126 40L128 40Z" fill="white" mask="url(#path-5-inside-2_1402_8279)"/>
<path d="M227 100C227 100 213.97 118 184 118C154.03 118 141 100 141 100" stroke="white"/>
</g>
<rect x="0.5" y="0.5" width="367" height="319" stroke="white" stroke-opacity="0.4"/>
</svg>
